<svg xmlns:xlink="http://www.w3.org/1999/xlink" width="45.326ex" height="11.913ex" viewBox="0 -2797.6 19515.1 5129.2" role="img" focusable="false" xmlns="http://www.w3.org/2000/svg" style="vertical-align: -5.204ex; margin-bottom: -0.212ex;"><g stroke="currentColor" fill="currentColor" stroke-width="0" transform="matrix(1 0 0 -1 0 0)"><g transform="translate(167,0)"><g transform="translate(-15,0)"><g transform="translate(0,1548)"><g transform="translate(14,0)"><path stroke-width="10" d="M296 643Q298 704 324 704Q342 704 342 687Q342 682 339 664T336 633Q336 623 337 618T338 611Q339 612 341 612Q343 614 354 616T374 618L384 619H394Q471 619 471 586Q467 548 386 546H372Q338 546 320 564L311 558Q235 506 175 398T114 190Q114 171 116 155T125 127T137 104T153 86T171 72T192 61T213 53T235 46T256 39L322 16Q389 -10 389 -80Q389 -119 364 -154T300 -202Q292 -204 274 -204Q247 -204 225 -196Q210 -192 193 -182T172 -167Q167 -159 173 -148Q180 -139 191 -139Q195 -139 221 -153T283 -168Q298 -166 310 -152T322 -117Q322 -91 302 -75T250 -51T183 -29T116 4T65 62T44 160Q44 287 121 410T293 590L302 595Q296 613 296 643Z"></path></g><g transform="translate(104,270)"><path stroke-width="10" d="M112 560L249 694L257 686Q387 562 387 560L361 531Q359 532 303 581L250 627L195 580Q182 569 169 557T148 538L140 532Q138 530 125 546L112 560Z"></path></g><g transform="translate(94,513)"><path stroke-width="10" d="M190 609Q190 637 208 653T252 669Q275 667 292 652T309 609Q309 579 292 564T250 549Q225 549 208 564T190 609Z"></path></g><g transform="translate(609,-250)"><path stroke-width="10" transform="scale(0.707)" d="M213 578L200 573Q186 568 160 563T102 556H83V602H102Q149 604 189 617T245 641T273 663Q275 666 285 666Q294 666 302 660V361L303 61Q310 54 315 52T339 48T401 46H427V0H416Q395 3 257 3Q121 3 100 0H88V46H114Q136 46 152 46T177 47T193 50T201 52T207 57T213 61V578Z"></path></g></g><g transform="translate(0,-205)"><g transform="translate(14,0)"><path stroke-width="10" d="M296 643Q298 704 324 704Q342 704 342 687Q342 682 339 664T336 633Q336 623 337 618T338 611Q339 612 341 612Q343 614 354 616T374 618L384 619H394Q471 619 471 586Q467 548 386 546H372Q338 546 320 564L311 558Q235 506 175 398T114 190Q114 171 116 155T125 127T137 104T153 86T171 72T192 61T213 53T235 46T256 39L322 16Q389 -10 389 -80Q389 -119 364 -154T300 -202Q292 -204 274 -204Q247 -204 225 -196Q210 -192 193 -182T172 -167Q167 -159 173 -148Q180 -139 191 -139Q195 -139 221 -153T283 -168Q298 -166 310 -152T322 -117Q322 -91 302 -75T250 -51T183 -29T116 4T65 62T44 160Q44 287 121 410T293 590L302 595Q296 613 296 643Z"></path></g><g transform="translate(104,270)"><path stroke-width="10" d="M112 560L249 694L257 686Q387 562 387 560L361 531Q359 532 303 581L250 627L195 580Q182 569 169 557T148 538L140 532Q138 530 125 546L112 560Z"></path></g><g transform="translate(94,513)"><path stroke-width="10" d="M190 609Q190 637 208 653T252 669Q275 667 292 652T309 609Q309 579 292 564T250 549Q225 549 208 564T190 609Z"></path></g><g transform="translate(609,-250)"><path stroke-width="10" transform="scale(0.707)" d="M109 429Q82 429 66 447T50 491Q50 562 103 614T235 666Q326 666 387 610T449 465Q449 422 429 383T381 315T301 241Q265 210 201 149L142 93L218 92Q375 92 385 97Q392 99 409 186V189H449V186Q448 183 436 95T421 3V0H50V19V31Q50 38 56 46T86 81Q115 113 136 137Q145 147 170 174T204 211T233 244T261 278T284 308T305 340T320 369T333 401T340 431T343 464Q343 527 309 573T212 619Q179 619 154 602T119 569T109 550Q109 549 114 549Q132 549 151 535T170 489Q170 464 154 447T109 429Z"></path></g></g><g transform="translate(0,-1969)"><g transform="translate(14,0)"><path stroke-width="10" d="M296 643Q298 704 324 704Q342 704 342 687Q342 682 339 664T336 633Q336 623 337 618T338 611Q339 612 341 612Q343 614 354 616T374 618L384 619H394Q471 619 471 586Q467 548 386 546H372Q338 546 320 564L311 558Q235 506 175 398T114 190Q114 171 116 155T125 127T137 104T153 86T171 72T192 61T213 53T235 46T256 39L322 16Q389 -10 389 -80Q389 -119 364 -154T300 -202Q292 -204 274 -204Q247 -204 225 -196Q210 -192 193 -182T172 -167Q167 -159 173 -148Q180 -139 191 -139Q195 -139 221 -153T283 -168Q298 -166 310 -152T322 -117Q322 -91 302 -75T250 -51T183 -29T116 4T65 62T44 160Q44 287 121 410T293 590L302 595Q296 613 296 643Z"></path></g><g transform="translate(104,270)"><path stroke-width="10" d="M112 560L249 694L257 686Q387 562 387 560L361 531Q359 532 303 581L250 627L195 580Q182 569 169 557T148 538L140 532Q138 530 125 546L112 560Z"></path></g><g transform="translate(94,513)"><path stroke-width="10" d="M190 609Q190 637 208 653T252 669Q275 667 292 652T309 609Q309 579 292 564T250 549Q225 549 208 564T190 609Z"></path></g><g transform="translate(609,-250)"><path stroke-width="10" transform="scale(0.707)" d="M127 463Q100 463 85 480T69 524Q69 579 117 622T233 665Q268 665 277 664Q351 652 390 611T430 522Q430 470 396 421T302 350L299 348Q299 347 308 345T337 336T375 315Q457 262 457 175Q457 96 395 37T238 -22Q158 -22 100 21T42 130Q42 158 60 175T105 193Q133 193 151 175T169 130Q169 119 166 110T159 94T148 82T136 74T126 70T118 67L114 66Q165 21 238 21Q293 21 321 74Q338 107 338 175V195Q338 290 274 322Q259 328 213 329L171 330L168 332Q166 335 166 348Q166 366 174 366Q202 366 232 371Q266 376 294 413T322 525V533Q322 590 287 612Q265 626 240 626Q208 626 181 615T143 592T132 580H135Q138 579 143 578T153 573T165 566T175 555T183 540T186 520Q186 498 172 481T127 463Z"></path></g></g></g><g transform="translate(1052,0)"><g transform="translate(0,1548)"><g transform="translate(277,0)"><path stroke-width="10" d="M56 347Q56 360 70 367H707Q722 359 722 347Q722 336 708 328L390 327H72Q56 332 56 347ZM56 153Q56 168 72 173H708Q722 163 722 153Q722 140 707 133H70Q56 140 56 153Z"></path></g></g><g transform="translate(0,-205)"><g transform="translate(277,0)"><path stroke-width="10" d="M56 347Q56 360 70 367H707Q722 359 722 347Q722 336 708 328L390 327H72Q56 332 56 347ZM56 153Q56 168 72 173H708Q722 163 722 153Q722 140 707 133H70Q56 140 56 153Z"></path></g></g><g transform="translate(0,-1969)"><g transform="translate(277,0)"><path stroke-width="10" d="M56 347Q56 360 70 367H707Q722 359 722 347Q722 336 708 328L390 327H72Q56 332 56 347ZM56 153Q56 168 72 173H708Q722 163 722 153Q722 140 707 133H70Q56 140 56 153Z"></path></g></g></g><g transform="translate(2390,0)"><g transform="translate(0,1548)"><g transform="translate(14,0)"><path stroke-width="10" d="M296 643Q298 704 324 704Q342 704 342 687Q342 682 339 664T336 633Q336 623 337 618T338 611Q339 612 341 612Q343 614 354 616T374 618L384 619H394Q471 619 471 586Q467 548 386 546H372Q338 546 320 564L311 558Q235 506 175 398T114 190Q114 171 116 155T125 127T137 104T153 86T171 72T192 61T213 53T235 46T256 39L322 16Q389 -10 389 -80Q389 -119 364 -154T300 -202Q292 -204 274 -204Q247 -204 225 -196Q210 -192 193 -182T172 -167Q167 -159 173 -148Q180 -139 191 -139Q195 -139 221 -153T283 -168Q298 -166 310 -152T322 -117Q322 -91 302 -75T250 -51T183 -29T116 4T65 62T44 160Q44 287 121 410T293 590L302 595Q296 613 296 643Z"></path></g><g transform="translate(104,270)"><path stroke-width="10" d="M112 560L249 694L257 686Q387 562 387 560L361 531Q359 532 303 581L250 627L195 580Q182 569 169 557T148 538L140 532Q138 530 125 546L112 560Z"></path></g><g transform="translate(609,-250)"><path stroke-width="10" transform="scale(0.707)" d="M109 429Q82 429 66 447T50 491Q50 562 103 614T235 666Q326 666 387 610T449 465Q449 422 429 383T381 315T301 241Q265 210 201 149L142 93L218 92Q375 92 385 97Q392 99 409 186V189H449V186Q448 183 436 95T421 3V0H50V19V31Q50 38 56 46T86 81Q115 113 136 137Q145 147 170 174T204 211T233 244T261 278T284 308T305 340T320 369T333 401T340 431T343 464Q343 527 309 573T212 619Q179 619 154 602T119 569T109 550Q109 549 114 549Q132 549 151 535T170 489Q170 464 154 447T109 429Z"></path></g><g transform="translate(1289,0)"><path stroke-width="10" d="M56 237T56 250T70 270H369V420L370 570Q380 583 389 583Q402 583 409 568V270H707Q722 262 722 250T707 230H409V-68Q401 -82 391 -82H389H387Q375 -82 369 -68V230H70Q56 237 56 250Z"></path></g><g transform="translate(2294,0)"><path stroke-width="10" d="M227 -11Q149 -11 95 41T40 174Q40 262 87 322Q121 367 173 396T287 430Q289 431 329 431H367Q382 426 382 411Q382 385 341 385H325H312Q191 385 154 277L150 265H327Q340 256 340 246Q340 228 320 219H138V217Q128 187 128 143Q128 77 160 52T231 26Q258 26 284 36T326 57T343 68Q350 68 354 58T358 39Q358 36 357 35Q354 31 337 21T289 0T227 -11Z"></path><g transform="translate(411,-150)"><path stroke-width="10" transform="scale(0.707)" d="M213 578L200 573Q186 568 160 563T102 556H83V602H102Q149 604 189 617T245 641T273 663Q275 666 285 666Q294 666 302 660V361L303 61Q310 54 315 52T339 48T401 46H427V0H416Q395 3 257 3Q121 3 100 0H88V46H114Q136 46 152 46T177 47T193 50T201 52T207 57T213 61V578Z"></path></g></g><g transform="translate(3162,0)"><path stroke-width="10" d="M295 316Q295 356 268 385T190 414Q154 414 128 401Q98 382 98 349Q97 344 98 336T114 312T157 287Q175 282 201 278T245 269T277 256Q294 248 310 236T342 195T359 133Q359 71 321 31T198 -10H190Q138 -10 94 26L86 19L77 10Q71 4 65 -1L54 -11H46H42Q39 -11 33 -5V74V132Q33 153 35 157T45 162H54Q66 162 70 158T75 146T82 119T101 77Q136 26 198 26Q295 26 295 104Q295 133 277 151Q257 175 194 187T111 210Q75 227 54 256T33 318Q33 357 50 384T93 424T143 442T187 447H198Q238 447 268 432L283 424L292 431Q302 440 314 448H322H326Q329 448 335 442V310L329 304H301Q295 310 295 316Z"></path><path stroke-width="10" d="M69 609Q69 637 87 653T131 669Q154 667 171 652T188 609Q188 579 171 564T129 549Q104 549 87 564T69 609ZM247 0Q232 3 143 3Q132 3 106 3T56 1L34 0H26V46H42Q70 46 91 49Q100 53 102 60T104 102V205V293Q104 345 102 359T88 378Q74 385 41 385H30V408Q30 431 32 431L42 432Q52 433 70 434T106 436Q123 437 142 438T171 441T182 442H185V62Q190 52 197 50T232 46H255V0H247Z" transform="translate(399,0)"></path><path stroke-width="10" d="M329 409Q373 453 429 453Q459 453 472 434T485 396Q485 382 476 371T449 360Q416 360 412 390Q410 404 415 411Q415 412 416 414V415Q388 412 363 393Q355 388 355 386Q355 385 359 381T368 369T379 351T388 325T392 292Q392 230 343 187T222 143Q172 143 123 171Q112 153 112 133Q112 98 138 81Q147 75 155 75T227 73Q311 72 335 67Q396 58 431 26Q470 -13 470 -72Q470 -139 392 -175Q332 -206 250 -206Q167 -206 107 -175Q29 -140 29 -75Q29 -39 50 -15T92 18L103 24Q67 55 67 108Q67 155 96 193Q52 237 52 292Q52 355 102 398T223 442Q274 442 318 416L329 409ZM299 343Q294 371 273 387T221 404Q192 404 171 388T145 343Q142 326 142 292Q142 248 149 227T179 192Q196 182 222 182Q244 182 260 189T283 207T294 227T299 242Q302 258 302 292T299 343ZM403 -75Q403 -50 389 -34T348 -11T299 -2T245 0H218Q151 0 138 -6Q118 -15 107 -34T95 -74Q95 -84 101 -97T122 -127T170 -155T250 -167Q319 -167 361 -139T403 -75Z" transform="translate(682,0)"></path><g transform="translate(1187,441)"><g transform="translate(120,0)"><rect stroke="none" width="1062" height="60" x="0" y="146"></rect><g transform="translate(60,379)"><path stroke-width="10" transform="scale(0.5)" d="M537 500Q537 474 533 439T524 383L521 362Q558 355 561 351Q563 349 563 345Q563 321 552 318Q542 318 521 323L510 326Q496 261 459 187T362 51T241 -11Q100 -11 100 105Q100 139 127 242T154 366Q154 405 128 405Q107 405 92 377T68 316T57 280Q55 278 41 278H27Q21 284 21 287Q21 291 27 313T47 368T79 418Q103 442 134 442Q169 442 201 419T233 344Q232 330 206 228T180 98Q180 26 247 26Q292 26 332 90T404 260L427 349Q422 349 398 359T339 392T289 440Q265 476 265 520Q265 590 312 647T417 705Q463 705 491 670T528 592T537 500ZM464 564Q464 668 413 668Q373 668 339 622T304 522Q304 494 317 470T349 431T388 406T421 391T435 387H436L443 415Q450 443 457 485T464 564Z"></path><g transform="translate(298,0)"><path stroke-width="10" transform="scale(0.5)" d="M56 237T56 250T70 270H369V420L370 570Q380 583 389 583Q402 583 409 568V270H707Q722 262 722 250T707 230H409V-68Q401 -82 391 -82H389H387Q375 -82 369 -68V230H70Q56 237 56 250Z"></path></g><g transform="translate(689,0)"><path stroke-width="10" transform="scale(0.5)" d="M109 429Q82 429 66 447T50 491Q50 562 103 614T235 666Q326 666 387 610T449 465Q449 422 429 383T381 315T301 241Q265 210 201 149L142 93L218 92Q375 92 385 97Q392 99 409 186V189H449V186Q448 183 436 95T421 3V0H50V19V31Q50 38 56 46T86 81Q115 113 136 137Q145 147 170 174T204 211T233 244T261 278T284 308T305 340T320 369T333 401T340 431T343 464Q343 527 309 573T212 619Q179 619 154 602T119 569T109 550Q109 549 114 549Q132 549 151 535T170 489Q170 464 154 447T109 429Z"></path></g></g><g transform="translate(404,-318)"><path stroke-width="10" transform="scale(0.5)" d="M127 463Q100 463 85 480T69 524Q69 579 117 622T233 665Q268 665 277 664Q351 652 390 611T430 522Q430 470 396 421T302 350L299 348Q299 347 308 345T337 336T375 315Q457 262 457 175Q457 96 395 37T238 -22Q158 -22 100 21T42 130Q42 158 60 175T105 193Q133 193 151 175T169 130Q169 119 166 110T159 94T148 82T136 74T126 70T118 67L114 66Q165 21 238 21Q293 21 321 74Q338 107 338 175V195Q338 290 274 322Q259 328 213 329L171 330L168 332Q166 335 166 348Q166 366 174 366Q202 366 232 371Q266 376 294 413T322 525V533Q322 590 287 612Q265 626 240 626Q208 626 181 615T143 592T132 580H135Q138 579 143 578T153 573T165 566T175 555T183 540T186 520Q186 498 172 481T127 463Z"></path></g></g></g></g><g transform="translate(5751,0)"><path stroke-width="10" d="M118 -250V750H255V710H158V-210H255V-250H118Z"></path></g><g transform="translate(6034,0)"><g transform="translate(14,0)"><path stroke-width="10" d="M296 643Q298 704 324 704Q342 704 342 687Q342 682 339 664T336 633Q336 623 337 618T338 611Q339 612 341 612Q343 614 354 616T374 618L384 619H394Q471 619 471 586Q467 548 386 546H372Q338 546 320 564L311 558Q235 506 175 398T114 190Q114 171 116 155T125 127T137 104T153 86T171 72T192 61T213 53T235 46T256 39L322 16Q389 -10 389 -80Q389 -119 364 -154T300 -202Q292 -204 274 -204Q247 -204 225 -196Q210 -192 193 -182T172 -167Q167 -159 173 -148Q180 -139 191 -139Q195 -139 221 -153T283 -168Q298 -166 310 -152T322 -117Q322 -91 302 -75T250 -51T183 -29T116 4T65 62T44 160Q44 287 121 410T293 590L302 595Q296 613 296 643Z"></path></g><g transform="translate(104,586)"><path stroke-width="10" d="M179 251Q164 251 151 245T131 234T111 215L97 227L83 238Q83 239 95 253T121 283T142 304Q165 318 187 318T253 300T320 282Q335 282 348 288T368 299T388 318L402 306L416 295Q375 236 344 222Q330 215 313 215Q292 215 248 233T179 251Z"></path></g></g><g transform="translate(6644,0)"><path stroke-width="10" d="M22 710V750H159V-250H22V-210H119V710H22Z"></path></g><g transform="translate(7149,0)"><path stroke-width="10" d="M56 237T56 250T70 270H369V420L370 570Q380 583 389 583Q402 583 409 568V270H707Q722 262 722 250T707 230H409V-68Q401 -82 391 -82H389H387Q375 -82 369 -68V230H70Q56 237 56 250Z"></path></g><g transform="translate(8154,0)"><path stroke-width="10" d="M58 -216Q44 -216 34 -208T23 -186Q23 -176 96 116T173 414Q186 442 219 442Q231 441 239 435T249 423T251 413Q251 401 220 279T187 142Q185 131 185 107V99Q185 26 252 26Q261 26 270 27T287 31T302 38T315 45T327 55T338 65T348 77T356 88T365 100L372 110L408 253Q444 395 448 404Q461 431 491 431Q504 431 512 424T523 412T525 402L449 84Q448 79 448 68Q448 43 455 35T476 26Q485 27 496 35Q517 55 537 131Q543 151 547 152Q549 153 557 153H561Q580 153 580 144Q580 138 575 117T555 63T523 13Q510 0 491 -8Q483 -10 467 -10Q446 -10 429 -4T402 11T385 29T376 44T374 51L368 45Q362 39 350 30T324 12T288 -4T246 -11Q199 -11 153 12L129 -85Q108 -167 104 -180T92 -202Q76 -216 58 -216Z"></path><g transform="translate(608,-150)"><path stroke-width="10" transform="scale(0.707)" d="M213 578L200 573Q186 568 160 563T102 556H83V602H102Q149 604 189 617T245 641T273 663Q275 666 285 666Q294 666 302 660V361L303 61Q310 54 315 52T339 48T401 46H427V0H416Q395 3 257 3Q121 3 100 0H88V46H114Q136 46 152 46T177 47T193 50T201 52T207 57T213 61V578Z"></path></g></g><g transform="translate(9219,0)"><path stroke-width="10" d="M295 316Q295 356 268 385T190 414Q154 414 128 401Q98 382 98 349Q97 344 98 336T114 312T157 287Q175 282 201 278T245 269T277 256Q294 248 310 236T342 195T359 133Q359 71 321 31T198 -10H190Q138 -10 94 26L86 19L77 10Q71 4 65 -1L54 -11H46H42Q39 -11 33 -5V74V132Q33 153 35 157T45 162H54Q66 162 70 158T75 146T82 119T101 77Q136 26 198 26Q295 26 295 104Q295 133 277 151Q257 175 194 187T111 210Q75 227 54 256T33 318Q33 357 50 384T93 424T143 442T187 447H198Q238 447 268 432L283 424L292 431Q302 440 314 448H322H326Q329 448 335 442V310L329 304H301Q295 310 295 316Z"></path><path stroke-width="10" d="M69 609Q69 637 87 653T131 669Q154 667 171 652T188 609Q188 579 171 564T129 549Q104 549 87 564T69 609ZM247 0Q232 3 143 3Q132 3 106 3T56 1L34 0H26V46H42Q70 46 91 49Q100 53 102 60T104 102V205V293Q104 345 102 359T88 378Q74 385 41 385H30V408Q30 431 32 431L42 432Q52 433 70 434T106 436Q123 437 142 438T171 441T182 442H185V62Q190 52 197 50T232 46H255V0H247Z" transform="translate(399,0)"></path><path stroke-width="10" d="M329 409Q373 453 429 453Q459 453 472 434T485 396Q485 382 476 371T449 360Q416 360 412 390Q410 404 415 411Q415 412 416 414V415Q388 412 363 393Q355 388 355 386Q355 385 359 381T368 369T379 351T388 325T392 292Q392 230 343 187T222 143Q172 143 123 171Q112 153 112 133Q112 98 138 81Q147 75 155 75T227 73Q311 72 335 67Q396 58 431 26Q470 -13 470 -72Q470 -139 392 -175Q332 -206 250 -206Q167 -206 107 -175Q29 -140 29 -75Q29 -39 50 -15T92 18L103 24Q67 55 67 108Q67 155 96 193Q52 237 52 292Q52 355 102 398T223 442Q274 442 318 416L329 409ZM299 343Q294 371 273 387T221 404Q192 404 171 388T145 343Q142 326 142 292Q142 248 149 227T179 192Q196 182 222 182Q244 182 260 189T283 207T294 227T299 242Q302 258 302 292T299 343ZM403 -75Q403 -50 389 -34T348 -11T299 -2T245 0H218Q151 0 138 -6Q118 -15 107 -34T95 -74Q95 -84 101 -97T122 -127T170 -155T250 -167Q319 -167 361 -139T403 -75Z" transform="translate(682,0)"></path><g transform="translate(1187,441)"><g transform="translate(120,0)"><rect stroke="none" width="1180" height="60" x="0" y="146"></rect><g transform="translate(60,379)"><path stroke-width="10" transform="scale(0.5)" d="M206 -10Q158 -10 136 24T114 110Q114 233 199 349L205 358H184Q144 358 121 347Q108 340 95 330T75 312T61 295T53 285Q51 284 38 284Q19 284 19 294Q19 300 38 329T93 391T164 429Q171 431 532 431Q799 431 803 430Q823 423 823 402Q823 377 801 364Q790 358 766 358Q748 358 748 357Q748 355 749 348T752 327T754 297Q754 258 738 207T693 107T618 24T520 -10Q488 -10 466 2T432 36T416 77T411 120Q411 128 410 128T404 122Q373 71 323 31T206 -10ZM714 296Q714 316 707 358H251Q250 357 244 348T230 328T212 301T193 267T176 229T164 187T159 144Q159 62 222 62Q290 62 349 127T432 285Q433 286 434 288T435 291T437 293T440 294T444 294T452 294H466Q472 288 472 286Q472 285 464 244T456 170Q456 62 534 62Q604 62 659 139T714 296Z"></path><g transform="translate(416,0)"><path stroke-width="10" transform="scale(0.5)" d="M56 237T56 250T70 270H369V420L370 570Q380 583 389 583Q402 583 409 568V270H707Q722 262 722 250T707 230H409V-68Q401 -82 391 -82H389H387Q375 -82 369 -68V230H70Q56 237 56 250Z"></path></g><g transform="translate(808,0)"><path stroke-width="10" transform="scale(0.5)" d="M109 429Q82 429 66 447T50 491Q50 562 103 614T235 666Q326 666 387 610T449 465Q449 422 429 383T381 315T301 241Q265 210 201 149L142 93L218 92Q375 92 385 97Q392 99 409 186V189H449V186Q448 183 436 95T421 3V0H50V19V31Q50 38 56 46T86 81Q115 113 136 137Q145 147 170 174T204 211T233 244T261 278T284 308T305 340T320 369T333 401T340 431T343 464Q343 527 309 573T212 619Q179 619 154 602T119 569T109 550Q109 549 114 549Q132 549 151 535T170 489Q170 464 154 447T109 429Z"></path></g></g><g transform="translate(464,-318)"><path stroke-width="10" transform="scale(0.5)" d="M127 463Q100 463 85 480T69 524Q69 579 117 622T233 665Q268 665 277 664Q351 652 390 611T430 522Q430 470 396 421T302 350L299 348Q299 347 308 345T337 336T375 315Q457 262 457 175Q457 96 395 37T238 -22Q158 -22 100 21T42 130Q42 158 60 175T105 193Q133 193 151 175T169 130Q169 119 166 110T159 94T148 82T136 74T126 70T118 67L114 66Q165 21 238 21Q293 21 321 74Q338 107 338 175V195Q338 290 274 322Q259 328 213 329L171 330L168 332Q166 335 166 348Q166 366 174 366Q202 366 232 371Q266 376 294 413T322 525V533Q322 590 287 612Q265 626 240 626Q208 626 181 615T143 592T132 580H135Q138 579 143 578T153 573T165 566T175 555T183 540T186 520Q186 498 172 481T127 463Z"></path></g></g></g></g><g transform="translate(11927,0)"><path stroke-width="10" d="M118 -250V750H255V710H158V-210H255V-250H118Z"></path></g><g transform="translate(12210,0)"><g transform="translate(14,0)"><path stroke-width="10" d="M296 643Q298 704 324 704Q342 704 342 687Q342 682 339 664T336 633Q336 623 337 618T338 611Q339 612 341 612Q343 614 354 616T374 618L384 619H394Q471 619 471 586Q467 548 386 546H372Q338 546 320 564L311 558Q235 506 175 398T114 190Q114 171 116 155T125 127T137 104T153 86T171 72T192 61T213 53T235 46T256 39L322 16Q389 -10 389 -80Q389 -119 364 -154T300 -202Q292 -204 274 -204Q247 -204 225 -196Q210 -192 193 -182T172 -167Q167 -159 173 -148Q180 -139 191 -139Q195 -139 221 -153T283 -168Q298 -166 310 -152T322 -117Q322 -91 302 -75T250 -51T183 -29T116 4T65 62T44 160Q44 287 121 410T293 590L302 595Q296 613 296 643Z"></path></g><g transform="translate(104,586)"><path stroke-width="10" d="M179 251Q164 251 151 245T131 234T111 215L97 227L83 238Q83 239 95 253T121 283T142 304Q165 318 187 318T253 300T320 282Q335 282 348 288T368 299T388 318L402 306L416 295Q375 236 344 222Q330 215 313 215Q292 215 248 233T179 251Z"></path></g></g><g transform="translate(12819,0)"><path stroke-width="10" d="M22 710V750H159V-250H22V-210H119V710H22Z"></path></g></g><g transform="translate(0,-205)"><g transform="translate(14,0)"><path stroke-width="10" d="M296 643Q298 704 324 704Q342 704 342 687Q342 682 339 664T336 633Q336 623 337 618T338 611Q339 612 341 612Q343 614 354 616T374 618L384 619H394Q471 619 471 586Q467 548 386 546H372Q338 546 320 564L311 558Q235 506 175 398T114 190Q114 171 116 155T125 127T137 104T153 86T171 72T192 61T213 53T235 46T256 39L322 16Q389 -10 389 -80Q389 -119 364 -154T300 -202Q292 -204 274 -204Q247 -204 225 -196Q210 -192 193 -182T172 -167Q167 -159 173 -148Q180 -139 191 -139Q195 -139 221 -153T283 -168Q298 -166 310 -152T322 -117Q322 -91 302 -75T250 -51T183 -29T116 4T65 62T44 160Q44 287 121 410T293 590L302 595Q296 613 296 643Z"></path></g><g transform="translate(104,270)"><path stroke-width="10" d="M112 560L249 694L257 686Q387 562 387 560L361 531Q359 532 303 581L250 627L195 580Q182 569 169 557T148 538L140 532Q138 530 125 546L112 560Z"></path></g><g transform="translate(609,-250)"><path stroke-width="10" transform="scale(0.707)" d="M127 463Q100 463 85 480T69 524Q69 579 117 622T233 665Q268 665 277 664Q351 652 390 611T430 522Q430 470 396 421T302 350L299 348Q299 347 308 345T337 336T375 315Q457 262 457 175Q457 96 395 37T238 -22Q158 -22 100 21T42 130Q42 158 60 175T105 193Q133 193 151 175T169 130Q169 119 166 110T159 94T148 82T136 74T126 70T118 67L114 66Q165 21 238 21Q293 21 321 74Q338 107 338 175V195Q338 290 274 322Q259 328 213 329L171 330L168 332Q166 335 166 348Q166 366 174 366Q202 366 232 371Q266 376 294 413T322 525V533Q322 590 287 612Q265 626 240 626Q208 626 181 615T143 592T132 580H135Q138 579 143 578T153 573T165 566T175 555T183 540T186 520Q186 498 172 481T127 463Z"></path></g><g transform="translate(1289,0)"><path stroke-width="10" d="M56 237T56 250T70 270H369V420L370 570Q380 583 389 583Q402 583 409 568V270H707Q722 262 722 250T707 230H409V-68Q401 -82 391 -82H389H387Q375 -82 369 -68V230H70Q56 237 56 250Z"></path></g><g transform="translate(2294,0)"><path stroke-width="10" d="M311 43Q296 30 267 15T206 0Q143 0 105 45T66 160Q66 265 143 353T314 442Q361 442 401 394L404 398Q406 401 409 404T418 412T431 419T447 422Q461 422 470 413T480 394Q480 379 423 152T363 -80Q345 -134 286 -169T151 -205Q10 -205 10 -137Q10 -111 28 -91T74 -71Q89 -71 102 -80T116 -111Q116 -121 114 -130T107 -144T99 -154T92 -162L90 -164H91Q101 -167 151 -167Q189 -167 211 -155Q234 -144 254 -122T282 -75Q288 -56 298 -13Q311 35 311 43ZM384 328L380 339Q377 350 375 354T369 368T359 382T346 393T328 402T306 405Q262 405 221 352Q191 313 171 233T151 117Q151 38 213 38Q269 38 323 108L331 118L384 328Z"></path></g><g transform="translate(2779,0)"><path stroke-width="10" d="M94 250Q94 319 104 381T127 488T164 576T202 643T244 695T277 729T302 750H315H319Q333 750 333 741Q333 738 316 720T275 667T226 581T184 443T167 250T184 58T225 -81T274 -167T316 -220T333 -241Q333 -250 318 -250H315H302L274 -226Q180 -141 137 -14T94 250Z"></path></g><g transform="translate(3173,0)"><g transform="translate(14,0)"><path stroke-width="10" d="M296 643Q298 704 324 704Q342 704 342 687Q342 682 339 664T336 633Q336 623 337 618T338 611Q339 612 341 612Q343 614 354 616T374 618L384 619H394Q471 619 471 586Q467 548 386 546H372Q338 546 320 564L311 558Q235 506 175 398T114 190Q114 171 116 155T125 127T137 104T153 86T171 72T192 61T213 53T235 46T256 39L322 16Q389 -10 389 -80Q389 -119 364 -154T300 -202Q292 -204 274 -204Q247 -204 225 -196Q210 -192 193 -182T172 -167Q167 -159 173 -148Q180 -139 191 -139Q195 -139 221 -153T283 -168Q298 -166 310 -152T322 -117Q322 -91 302 -75T250 -51T183 -29T116 4T65 62T44 160Q44 287 121 410T293 590L302 595Q296 613 296 643Z"></path></g><g transform="translate(104,270)"><path stroke-width="10" d="M112 560L249 694L257 686Q387 562 387 560L361 531Q359 532 303 581L250 627L195 580Q182 569 169 557T148 538L140 532Q138 530 125 546L112 560Z"></path></g></g><g transform="translate(3783,0)"><path stroke-width="10" d="M60 749L64 750Q69 750 74 750H86L114 726Q208 641 251 514T294 250Q294 182 284 119T261 12T224 -76T186 -143T145 -194T113 -227T90 -246Q87 -249 86 -250H74Q66 -250 63 -250T58 -247T55 -238Q56 -237 66 -225Q221 -64 221 250T66 725Q56 737 55 738Q55 746 60 749Z"></path></g><g transform="translate(4177,0)"><path stroke-width="10" d="M21 287Q21 295 30 318T55 370T99 420T158 442Q204 442 227 417T250 358Q250 340 216 246T182 105Q182 62 196 45T238 27T291 44T328 78L339 95Q341 99 377 247Q407 367 413 387T427 416Q444 431 463 431Q480 431 488 421T496 402L420 84Q419 79 419 68Q419 43 426 35T447 26Q469 29 482 57T512 145Q514 153 532 153Q551 153 551 144Q550 139 549 130T540 98T523 55T498 17T462 -8Q454 -10 438 -10Q372 -10 347 46Q345 45 336 36T318 21T296 6T267 -6T233 -11Q189 -11 155 7Q103 38 103 113Q103 170 138 262T173 379Q173 380 173 381Q173 390 173 393T169 400T158 404H154Q131 404 112 385T82 344T65 302T57 280Q55 278 41 278H27Q21 284 21 287Z"></path></g><g transform="translate(4976,0)"><path stroke-width="10" d="M56 237T56 250T70 270H369V420L370 570Q380 583 389 583Q402 583 409 568V270H707Q722 262 722 250T707 230H409V-68Q401 -82 391 -82H389H387Q375 -82 369 -68V230H70Q56 237 56 250Z"></path></g><g transform="translate(5981,0)"><path stroke-width="10" d="M227 -11Q149 -11 95 41T40 174Q40 262 87 322Q121 367 173 396T287 430Q289 431 329 431H367Q382 426 382 411Q382 385 341 385H325H312Q191 385 154 277L150 265H327Q340 256 340 246Q340 228 320 219H138V217Q128 187 128 143Q128 77 160 52T231 26Q258 26 284 36T326 57T343 68Q350 68 354 58T358 39Q358 36 357 35Q354 31 337 21T289 0T227 -11Z"></path><g transform="translate(411,-150)"><path stroke-width="10" transform="scale(0.707)" d="M109 429Q82 429 66 447T50 491Q50 562 103 614T235 666Q326 666 387 610T449 465Q449 422 429 383T381 315T301 241Q265 210 201 149L142 93L218 92Q375 92 385 97Q392 99 409 186V189H449V186Q448 183 436 95T421 3V0H50V19V31Q50 38 56 46T86 81Q115 113 136 137Q145 147 170 174T204 211T233 244T261 278T284 308T305 340T320 369T333 401T340 431T343 464Q343 527 309 573T212 619Q179 619 154 602T119 569T109 550Q109 549 114 549Q132 549 151 535T170 489Q170 464 154 447T109 429Z"></path></g></g><g transform="translate(6849,0)"><path stroke-width="10" d="M295 316Q295 356 268 385T190 414Q154 414 128 401Q98 382 98 349Q97 344 98 336T114 312T157 287Q175 282 201 278T245 269T277 256Q294 248 310 236T342 195T359 133Q359 71 321 31T198 -10H190Q138 -10 94 26L86 19L77 10Q71 4 65 -1L54 -11H46H42Q39 -11 33 -5V74V132Q33 153 35 157T45 162H54Q66 162 70 158T75 146T82 119T101 77Q136 26 198 26Q295 26 295 104Q295 133 277 151Q257 175 194 187T111 210Q75 227 54 256T33 318Q33 357 50 384T93 424T143 442T187 447H198Q238 447 268 432L283 424L292 431Q302 440 314 448H322H326Q329 448 335 442V310L329 304H301Q295 310 295 316Z"></path><path stroke-width="10" d="M69 609Q69 637 87 653T131 669Q154 667 171 652T188 609Q188 579 171 564T129 549Q104 549 87 564T69 609ZM247 0Q232 3 143 3Q132 3 106 3T56 1L34 0H26V46H42Q70 46 91 49Q100 53 102 60T104 102V205V293Q104 345 102 359T88 378Q74 385 41 385H30V408Q30 431 32 431L42 432Q52 433 70 434T106 436Q123 437 142 438T171 441T182 442H185V62Q190 52 197 50T232 46H255V0H247Z" transform="translate(399,0)"></path><path stroke-width="10" d="M329 409Q373 453 429 453Q459 453 472 434T485 396Q485 382 476 371T449 360Q416 360 412 390Q410 404 415 411Q415 412 416 414V415Q388 412 363 393Q355 388 355 386Q355 385 359 381T368 369T379 351T388 325T392 292Q392 230 343 187T222 143Q172 143 123 171Q112 153 112 133Q112 98 138 81Q147 75 155 75T227 73Q311 72 335 67Q396 58 431 26Q470 -13 470 -72Q470 -139 392 -175Q332 -206 250 -206Q167 -206 107 -175Q29 -140 29 -75Q29 -39 50 -15T92 18L103 24Q67 55 67 108Q67 155 96 193Q52 237 52 292Q52 355 102 398T223 442Q274 442 318 416L329 409ZM299 343Q294 371 273 387T221 404Q192 404 171 388T145 343Q142 326 142 292Q142 248 149 227T179 192Q196 182 222 182Q244 182 260 189T283 207T294 227T299 242Q302 258 302 292T299 343ZM403 -75Q403 -50 389 -34T348 -11T299 -2T245 0H218Q151 0 138 -6Q118 -15 107 -34T95 -74Q95 -84 101 -97T122 -127T170 -155T250 -167Q319 -167 361 -139T403 -75Z" transform="translate(682,0)"></path><g transform="translate(1187,430)"><g transform="translate(120,0)"><rect stroke="none" width="1062" height="60" x="0" y="146"></rect><g transform="translate(60,379)"><path stroke-width="10" transform="scale(0.5)" d="M537 500Q537 474 533 439T524 383L521 362Q558 355 561 351Q563 349 563 345Q563 321 552 318Q542 318 521 323L510 326Q496 261 459 187T362 51T241 -11Q100 -11 100 105Q100 139 127 242T154 366Q154 405 128 405Q107 405 92 377T68 316T57 280Q55 278 41 278H27Q21 284 21 287Q21 291 27 313T47 368T79 418Q103 442 134 442Q169 442 201 419T233 344Q232 330 206 228T180 98Q180 26 247 26Q292 26 332 90T404 260L427 349Q422 349 398 359T339 392T289 440Q265 476 265 520Q265 590 312 647T417 705Q463 705 491 670T528 592T537 500ZM464 564Q464 668 413 668Q373 668 339 622T304 522Q304 494 317 470T349 431T388 406T421 391T435 387H436L443 415Q450 443 457 485T464 564Z"></path><g transform="translate(298,0)"><path stroke-width="10" transform="scale(0.5)" d="M56 237T56 250T70 270H369V420L370 570Q380 583 389 583Q402 583 409 568V270H707Q722 262 722 250T707 230H409V-68Q401 -82 391 -82H389H387Q375 -82 369 -68V230H70Q56 237 56 250Z"></path></g><g transform="translate(689,0)"><path stroke-width="10" transform="scale(0.5)" d="M213 578L200 573Q186 568 160 563T102 556H83V602H102Q149 604 189 617T245 641T273 663Q275 666 285 666Q294 666 302 660V361L303 61Q310 54 315 52T339 48T401 46H427V0H416Q395 3 257 3Q121 3 100 0H88V46H114Q136 46 152 46T177 47T193 50T201 52T207 57T213 61V578Z"></path></g></g><g transform="translate(404,-319)"><path stroke-width="10" transform="scale(0.5)" d="M109 429Q82 429 66 447T50 491Q50 562 103 614T235 666Q326 666 387 610T449 465Q449 422 429 383T381 315T301 241Q265 210 201 149L142 93L218 92Q375 92 385 97Q392 99 409 186V189H449V186Q448 183 436 95T421 3V0H50V19V31Q50 38 56 46T86 81Q115 113 136 137Q145 147 170 174T204 211T233 244T261 278T284 308T305 340T320 369T333 401T340 431T343 464Q343 527 309 573T212 619Q179 619 154 602T119 569T109 550Q109 549 114 549Q132 549 151 535T170 489Q170 464 154 447T109 429Z"></path></g></g></g></g><g transform="translate(9438,0)"><path stroke-width="10" d="M118 -250V750H255V710H158V-210H255V-250H118Z"></path></g><g transform="translate(9721,0)"><g transform="translate(14,0)"><path stroke-width="10" d="M296 643Q298 704 324 704Q342 704 342 687Q342 682 339 664T336 633Q336 623 337 618T338 611Q339 612 341 612Q343 614 354 616T374 618L384 619H394Q471 619 471 586Q467 548 386 546H372Q338 546 320 564L311 558Q235 506 175 398T114 190Q114 171 116 155T125 127T137 104T153 86T171 72T192 61T213 53T235 46T256 39L322 16Q389 -10 389 -80Q389 -119 364 -154T300 -202Q292 -204 274 -204Q247 -204 225 -196Q210 -192 193 -182T172 -167Q167 -159 173 -148Q180 -139 191 -139Q195 -139 221 -153T283 -168Q298 -166 310 -152T322 -117Q322 -91 302 -75T250 -51T183 -29T116 4T65 62T44 160Q44 287 121 410T293 590L302 595Q296 613 296 643Z"></path></g><g transform="translate(104,586)"><path stroke-width="10" d="M179 251Q164 251 151 245T131 234T111 215L97 227L83 238Q83 239 95 253T121 283T142 304Q165 318 187 318T253 300T320 282Q335 282 348 288T368 299T388 318L402 306L416 295Q375 236 344 222Q330 215 313 215Q292 215 248 233T179 251Z"></path></g></g><g transform="translate(10331,0)"><path stroke-width="10" d="M22 710V750H159V-250H22V-210H119V710H22Z"></path></g><g transform="translate(10836,0)"><path stroke-width="10" d="M56 237T56 250T70 270H369V420L370 570Q380 583 389 583Q402 583 409 568V270H707Q722 262 722 250T707 230H409V-68Q401 -82 391 -82H389H387Q375 -82 369 -68V230H70Q56 237 56 250Z"></path></g><g transform="translate(11841,0)"><path stroke-width="10" d="M58 -216Q44 -216 34 -208T23 -186Q23 -176 96 116T173 414Q186 442 219 442Q231 441 239 435T249 423T251 413Q251 401 220 279T187 142Q185 131 185 107V99Q185 26 252 26Q261 26 270 27T287 31T302 38T315 45T327 55T338 65T348 77T356 88T365 100L372 110L408 253Q444 395 448 404Q461 431 491 431Q504 431 512 424T523 412T525 402L449 84Q448 79 448 68Q448 43 455 35T476 26Q485 27 496 35Q517 55 537 131Q543 151 547 152Q549 153 557 153H561Q580 153 580 144Q580 138 575 117T555 63T523 13Q510 0 491 -8Q483 -10 467 -10Q446 -10 429 -4T402 11T385 29T376 44T374 51L368 45Q362 39 350 30T324 12T288 -4T246 -11Q199 -11 153 12L129 -85Q108 -167 104 -180T92 -202Q76 -216 58 -216Z"></path><g transform="translate(608,-150)"><path stroke-width="10" transform="scale(0.707)" d="M109 429Q82 429 66 447T50 491Q50 562 103 614T235 666Q326 666 387 610T449 465Q449 422 429 383T381 315T301 241Q265 210 201 149L142 93L218 92Q375 92 385 97Q392 99 409 186V189H449V186Q448 183 436 95T421 3V0H50V19V31Q50 38 56 46T86 81Q115 113 136 137Q145 147 170 174T204 211T233 244T261 278T284 308T305 340T320 369T333 401T340 431T343 464Q343 527 309 573T212 619Q179 619 154 602T119 569T109 550Q109 549 114 549Q132 549 151 535T170 489Q170 464 154 447T109 429Z"></path></g></g><g transform="translate(12906,0)"><path stroke-width="10" d="M295 316Q295 356 268 385T190 414Q154 414 128 401Q98 382 98 349Q97 344 98 336T114 312T157 287Q175 282 201 278T245 269T277 256Q294 248 310 236T342 195T359 133Q359 71 321 31T198 -10H190Q138 -10 94 26L86 19L77 10Q71 4 65 -1L54 -11H46H42Q39 -11 33 -5V74V132Q33 153 35 157T45 162H54Q66 162 70 158T75 146T82 119T101 77Q136 26 198 26Q295 26 295 104Q295 133 277 151Q257 175 194 187T111 210Q75 227 54 256T33 318Q33 357 50 384T93 424T143 442T187 447H198Q238 447 268 432L283 424L292 431Q302 440 314 448H322H326Q329 448 335 442V310L329 304H301Q295 310 295 316Z"></path><path stroke-width="10" d="M69 609Q69 637 87 653T131 669Q154 667 171 652T188 609Q188 579 171 564T129 549Q104 549 87 564T69 609ZM247 0Q232 3 143 3Q132 3 106 3T56 1L34 0H26V46H42Q70 46 91 49Q100 53 102 60T104 102V205V293Q104 345 102 359T88 378Q74 385 41 385H30V408Q30 431 32 431L42 432Q52 433 70 434T106 436Q123 437 142 438T171 441T182 442H185V62Q190 52 197 50T232 46H255V0H247Z" transform="translate(399,0)"></path><path stroke-width="10" d="M329 409Q373 453 429 453Q459 453 472 434T485 396Q485 382 476 371T449 360Q416 360 412 390Q410 404 415 411Q415 412 416 414V415Q388 412 363 393Q355 388 355 386Q355 385 359 381T368 369T379 351T388 325T392 292Q392 230 343 187T222 143Q172 143 123 171Q112 153 112 133Q112 98 138 81Q147 75 155 75T227 73Q311 72 335 67Q396 58 431 26Q470 -13 470 -72Q470 -139 392 -175Q332 -206 250 -206Q167 -206 107 -175Q29 -140 29 -75Q29 -39 50 -15T92 18L103 24Q67 55 67 108Q67 155 96 193Q52 237 52 292Q52 355 102 398T223 442Q274 442 318 416L329 409ZM299 343Q294 371 273 387T221 404Q192 404 171 388T145 343Q142 326 142 292Q142 248 149 227T179 192Q196 182 222 182Q244 182 260 189T283 207T294 227T299 242Q302 258 302 292T299 343ZM403 -75Q403 -50 389 -34T348 -11T299 -2T245 0H218Q151 0 138 -6Q118 -15 107 -34T95 -74Q95 -84 101 -97T122 -127T170 -155T250 -167Q319 -167 361 -139T403 -75Z" transform="translate(682,0)"></path><g transform="translate(1187,430)"><g transform="translate(120,0)"><rect stroke="none" width="1180" height="60" x="0" y="146"></rect><g transform="translate(60,379)"><path stroke-width="10" transform="scale(0.5)" d="M206 -10Q158 -10 136 24T114 110Q114 233 199 349L205 358H184Q144 358 121 347Q108 340 95 330T75 312T61 295T53 285Q51 284 38 284Q19 284 19 294Q19 300 38 329T93 391T164 429Q171 431 532 431Q799 431 803 430Q823 423 823 402Q823 377 801 364Q790 358 766 358Q748 358 748 357Q748 355 749 348T752 327T754 297Q754 258 738 207T693 107T618 24T520 -10Q488 -10 466 2T432 36T416 77T411 120Q411 128 410 128T404 122Q373 71 323 31T206 -10ZM714 296Q714 316 707 358H251Q250 357 244 348T230 328T212 301T193 267T176 229T164 187T159 144Q159 62 222 62Q290 62 349 127T432 285Q433 286 434 288T435 291T437 293T440 294T444 294T452 294H466Q472 288 472 286Q472 285 464 244T456 170Q456 62 534 62Q604 62 659 139T714 296Z"></path><g transform="translate(416,0)"><path stroke-width="10" transform="scale(0.5)" d="M56 237T56 250T70 270H369V420L370 570Q380 583 389 583Q402 583 409 568V270H707Q722 262 722 250T707 230H409V-68Q401 -82 391 -82H389H387Q375 -82 369 -68V230H70Q56 237 56 250Z"></path></g><g transform="translate(808,0)"><path stroke-width="10" transform="scale(0.5)" d="M213 578L200 573Q186 568 160 563T102 556H83V602H102Q149 604 189 617T245 641T273 663Q275 666 285 666Q294 666 302 660V361L303 61Q310 54 315 52T339 48T401 46H427V0H416Q395 3 257 3Q121 3 100 0H88V46H114Q136 46 152 46T177 47T193 50T201 52T207 57T213 61V578Z"></path></g></g><g transform="translate(464,-319)"><path stroke-width="10" transform="scale(0.5)" d="M109 429Q82 429 66 447T50 491Q50 562 103 614T235 666Q326 666 387 610T449 465Q449 422 429 383T381 315T301 241Q265 210 201 149L142 93L218 92Q375 92 385 97Q392 99 409 186V189H449V186Q448 183 436 95T421 3V0H50V19V31Q50 38 56 46T86 81Q115 113 136 137Q145 147 170 174T204 211T233 244T261 278T284 308T305 340T320 369T333 401T340 431T343 464Q343 527 309 573T212 619Q179 619 154 602T119 569T109 550Q109 549 114 549Q132 549 151 535T170 489Q170 464 154 447T109 429Z"></path></g></g></g></g><g transform="translate(15614,0)"><path stroke-width="10" d="M118 -250V750H255V710H158V-210H255V-250H118Z"></path></g><g transform="translate(15897,0)"><g transform="translate(14,0)"><path stroke-width="10" d="M296 643Q298 704 324 704Q342 704 342 687Q342 682 339 664T336 633Q336 623 337 618T338 611Q339 612 341 612Q343 614 354 616T374 618L384 619H394Q471 619 471 586Q467 548 386 546H372Q338 546 320 564L311 558Q235 506 175 398T114 190Q114 171 116 155T125 127T137 104T153 86T171 72T192 61T213 53T235 46T256 39L322 16Q389 -10 389 -80Q389 -119 364 -154T300 -202Q292 -204 274 -204Q247 -204 225 -196Q210 -192 193 -182T172 -167Q167 -159 173 -148Q180 -139 191 -139Q195 -139 221 -153T283 -168Q298 -166 310 -152T322 -117Q322 -91 302 -75T250 -51T183 -29T116 4T65 62T44 160Q44 287 121 410T293 590L302 595Q296 613 296 643Z"></path></g><g transform="translate(104,586)"><path stroke-width="10" d="M179 251Q164 251 151 245T131 234T111 215L97 227L83 238Q83 239 95 253T121 283T142 304Q165 318 187 318T253 300T320 282Q335 282 348 288T368 299T388 318L402 306L416 295Q375 236 344 222Q330 215 313 215Q292 215 248 233T179 251Z"></path></g></g><g transform="translate(16507,0)"><path stroke-width="10" d="M22 710V750H159V-250H22V-210H119V710H22Z"></path></g></g><g transform="translate(0,-1969)"><path stroke-width="10" d="M227 -11Q149 -11 95 41T40 174Q40 262 87 322Q121 367 173 396T287 430Q289 431 329 431H367Q382 426 382 411Q382 385 341 385H325H312Q191 385 154 277L150 265H327Q340 256 340 246Q340 228 320 219H138V217Q128 187 128 143Q128 77 160 52T231 26Q258 26 284 36T326 57T343 68Q350 68 354 58T358 39Q358 36 357 35Q354 31 337 21T289 0T227 -11Z"></path><g transform="translate(411,-150)"><path stroke-width="10" transform="scale(0.707)" d="M127 463Q100 463 85 480T69 524Q69 579 117 622T233 665Q268 665 277 664Q351 652 390 611T430 522Q430 470 396 421T302 350L299 348Q299 347 308 345T337 336T375 315Q457 262 457 175Q457 96 395 37T238 -22Q158 -22 100 21T42 130Q42 158 60 175T105 193Q133 193 151 175T169 130Q169 119 166 110T159 94T148 82T136 74T126 70T118 67L114 66Q165 21 238 21Q293 21 321 74Q338 107 338 175V195Q338 290 274 322Q259 328 213 329L171 330L168 332Q166 335 166 348Q166 366 174 366Q202 366 232 371Q266 376 294 413T322 525V533Q322 590 287 612Q265 626 240 626Q208 626 181 615T143 592T132 580H135Q138 579 143 578T153 573T165 566T175 555T183 540T186 520Q186 498 172 481T127 463Z"></path></g><g transform="translate(868,0)"><path stroke-width="10" d="M295 316Q295 356 268 385T190 414Q154 414 128 401Q98 382 98 349Q97 344 98 336T114 312T157 287Q175 282 201 278T245 269T277 256Q294 248 310 236T342 195T359 133Q359 71 321 31T198 -10H190Q138 -10 94 26L86 19L77 10Q71 4 65 -1L54 -11H46H42Q39 -11 33 -5V74V132Q33 153 35 157T45 162H54Q66 162 70 158T75 146T82 119T101 77Q136 26 198 26Q295 26 295 104Q295 133 277 151Q257 175 194 187T111 210Q75 227 54 256T33 318Q33 357 50 384T93 424T143 442T187 447H198Q238 447 268 432L283 424L292 431Q302 440 314 448H322H326Q329 448 335 442V310L329 304H301Q295 310 295 316Z"></path><path stroke-width="10" d="M69 609Q69 637 87 653T131 669Q154 667 171 652T188 609Q188 579 171 564T129 549Q104 549 87 564T69 609ZM247 0Q232 3 143 3Q132 3 106 3T56 1L34 0H26V46H42Q70 46 91 49Q100 53 102 60T104 102V205V293Q104 345 102 359T88 378Q74 385 41 385H30V408Q30 431 32 431L42 432Q52 433 70 434T106 436Q123 437 142 438T171 441T182 442H185V62Q190 52 197 50T232 46H255V0H247Z" transform="translate(399,0)"></path><path stroke-width="10" d="M329 409Q373 453 429 453Q459 453 472 434T485 396Q485 382 476 371T449 360Q416 360 412 390Q410 404 415 411Q415 412 416 414V415Q388 412 363 393Q355 388 355 386Q355 385 359 381T368 369T379 351T388 325T392 292Q392 230 343 187T222 143Q172 143 123 171Q112 153 112 133Q112 98 138 81Q147 75 155 75T227 73Q311 72 335 67Q396 58 431 26Q470 -13 470 -72Q470 -139 392 -175Q332 -206 250 -206Q167 -206 107 -175Q29 -140 29 -75Q29 -39 50 -15T92 18L103 24Q67 55 67 108Q67 155 96 193Q52 237 52 292Q52 355 102 398T223 442Q274 442 318 416L329 409ZM299 343Q294 371 273 387T221 404Q192 404 171 388T145 343Q142 326 142 292Q142 248 149 227T179 192Q196 182 222 182Q244 182 260 189T283 207T294 227T299 242Q302 258 302 292T299 343ZM403 -75Q403 -50 389 -34T348 -11T299 -2T245 0H218Q151 0 138 -6Q118 -15 107 -34T95 -74Q95 -84 101 -97T122 -127T170 -155T250 -167Q319 -167 361 -139T403 -75Z" transform="translate(682,0)"></path><g transform="translate(1187,412)"><path stroke-width="10" transform="scale(0.707)" d="M537 500Q537 474 533 439T524 383L521 362Q558 355 561 351Q563 349 563 345Q563 321 552 318Q542 318 521 323L510 326Q496 261 459 187T362 51T241 -11Q100 -11 100 105Q100 139 127 242T154 366Q154 405 128 405Q107 405 92 377T68 316T57 280Q55 278 41 278H27Q21 284 21 287Q21 291 27 313T47 368T79 418Q103 442 134 442Q169 442 201 419T233 344Q232 330 206 228T180 98Q180 26 247 26Q292 26 332 90T404 260L427 349Q422 349 398 359T339 392T289 440Q265 476 265 520Q265 590 312 647T417 705Q463 705 491 670T528 592T537 500ZM464 564Q464 668 413 668Q373 668 339 622T304 522Q304 494 317 470T349 431T388 406T421 391T435 387H436L443 415Q450 443 457 485T464 564Z"></path></g></g><g transform="translate(2576,0)"><path stroke-width="10" d="M118 -250V750H255V710H158V-210H255V-250H118Z"></path></g><g transform="translate(2859,0)"><g transform="translate(14,0)"><path stroke-width="10" d="M296 643Q298 704 324 704Q342 704 342 687Q342 682 339 664T336 633Q336 623 337 618T338 611Q339 612 341 612Q343 614 354 616T374 618L384 619H394Q471 619 471 586Q467 548 386 546H372Q338 546 320 564L311 558Q235 506 175 398T114 190Q114 171 116 155T125 127T137 104T153 86T171 72T192 61T213 53T235 46T256 39L322 16Q389 -10 389 -80Q389 -119 364 -154T300 -202Q292 -204 274 -204Q247 -204 225 -196Q210 -192 193 -182T172 -167Q167 -159 173 -148Q180 -139 191 -139Q195 -139 221 -153T283 -168Q298 -166 310 -152T322 -117Q322 -91 302 -75T250 -51T183 -29T116 4T65 62T44 160Q44 287 121 410T293 590L302 595Q296 613 296 643Z"></path></g><g transform="translate(104,586)"><path stroke-width="10" d="M179 251Q164 251 151 245T131 234T111 215L97 227L83 238Q83 239 95 253T121 283T142 304Q165 318 187 318T253 300T320 282Q335 282 348 288T368 299T388 318L402 306L416 295Q375 236 344 222Q330 215 313 215Q292 215 248 233T179 251Z"></path></g></g><g transform="translate(3469,0)"><path stroke-width="10" d="M22 710V750H159V-250H22V-210H119V710H22Z"></path></g><g transform="translate(3974,0)"><path stroke-width="10" d="M56 237T56 250T70 270H369V420L370 570Q380 583 389 583Q402 583 409 568V270H707Q722 262 722 250T707 230H409V-68Q401 -82 391 -82H389H387Q375 -82 369 -68V230H70Q56 237 56 250Z"></path></g><g transform="translate(4979,0)"><path stroke-width="10" d="M58 -216Q44 -216 34 -208T23 -186Q23 -176 96 116T173 414Q186 442 219 442Q231 441 239 435T249 423T251 413Q251 401 220 279T187 142Q185 131 185 107V99Q185 26 252 26Q261 26 270 27T287 31T302 38T315 45T327 55T338 65T348 77T356 88T365 100L372 110L408 253Q444 395 448 404Q461 431 491 431Q504 431 512 424T523 412T525 402L449 84Q448 79 448 68Q448 43 455 35T476 26Q485 27 496 35Q517 55 537 131Q543 151 547 152Q549 153 557 153H561Q580 153 580 144Q580 138 575 117T555 63T523 13Q510 0 491 -8Q483 -10 467 -10Q446 -10 429 -4T402 11T385 29T376 44T374 51L368 45Q362 39 350 30T324 12T288 -4T246 -11Q199 -11 153 12L129 -85Q108 -167 104 -180T92 -202Q76 -216 58 -216Z"></path><g transform="translate(608,-150)"><path stroke-width="10" transform="scale(0.707)" d="M127 463Q100 463 85 480T69 524Q69 579 117 622T233 665Q268 665 277 664Q351 652 390 611T430 522Q430 470 396 421T302 350L299 348Q299 347 308 345T337 336T375 315Q457 262 457 175Q457 96 395 37T238 -22Q158 -22 100 21T42 130Q42 158 60 175T105 193Q133 193 151 175T169 130Q169 119 166 110T159 94T148 82T136 74T126 70T118 67L114 66Q165 21 238 21Q293 21 321 74Q338 107 338 175V195Q338 290 274 322Q259 328 213 329L171 330L168 332Q166 335 166 348Q166 366 174 366Q202 366 232 371Q266 376 294 413T322 525V533Q322 590 287 612Q265 626 240 626Q208 626 181 615T143 592T132 580H135Q138 579 143 578T153 573T165 566T175 555T183 540T186 520Q186 498 172 481T127 463Z"></path></g></g><g transform="translate(6044,0)"><path stroke-width="10" d="M295 316Q295 356 268 385T190 414Q154 414 128 401Q98 382 98 349Q97 344 98 336T114 312T157 287Q175 282 201 278T245 269T277 256Q294 248 310 236T342 195T359 133Q359 71 321 31T198 -10H190Q138 -10 94 26L86 19L77 10Q71 4 65 -1L54 -11H46H42Q39 -11 33 -5V74V132Q33 153 35 157T45 162H54Q66 162 70 158T75 146T82 119T101 77Q136 26 198 26Q295 26 295 104Q295 133 277 151Q257 175 194 187T111 210Q75 227 54 256T33 318Q33 357 50 384T93 424T143 442T187 447H198Q238 447 268 432L283 424L292 431Q302 440 314 448H322H326Q329 448 335 442V310L329 304H301Q295 310 295 316Z"></path><path stroke-width="10" d="M69 609Q69 637 87 653T131 669Q154 667 171 652T188 609Q188 579 171 564T129 549Q104 549 87 564T69 609ZM247 0Q232 3 143 3Q132 3 106 3T56 1L34 0H26V46H42Q70 46 91 49Q100 53 102 60T104 102V205V293Q104 345 102 359T88 378Q74 385 41 385H30V408Q30 431 32 431L42 432Q52 433 70 434T106 436Q123 437 142 438T171 441T182 442H185V62Q190 52 197 50T232 46H255V0H247Z" transform="translate(399,0)"></path><path stroke-width="10" d="M329 409Q373 453 429 453Q459 453 472 434T485 396Q485 382 476 371T449 360Q416 360 412 390Q410 404 415 411Q415 412 416 414V415Q388 412 363 393Q355 388 355 386Q355 385 359 381T368 369T379 351T388 325T392 292Q392 230 343 187T222 143Q172 143 123 171Q112 153 112 133Q112 98 138 81Q147 75 155 75T227 73Q311 72 335 67Q396 58 431 26Q470 -13 470 -72Q470 -139 392 -175Q332 -206 250 -206Q167 -206 107 -175Q29 -140 29 -75Q29 -39 50 -15T92 18L103 24Q67 55 67 108Q67 155 96 193Q52 237 52 292Q52 355 102 398T223 442Q274 442 318 416L329 409ZM299 343Q294 371 273 387T221 404Q192 404 171 388T145 343Q142 326 142 292Q142 248 149 227T179 192Q196 182 222 182Q244 182 260 189T283 207T294 227T299 242Q302 258 302 292T299 343ZM403 -75Q403 -50 389 -34T348 -11T299 -2T245 0H218Q151 0 138 -6Q118 -15 107 -34T95 -74Q95 -84 101 -97T122 -127T170 -155T250 -167Q319 -167 361 -139T403 -75Z" transform="translate(682,0)"></path><g transform="translate(1187,412)"><path stroke-width="10" transform="scale(0.707)" d="M206 -10Q158 -10 136 24T114 110Q114 233 199 349L205 358H184Q144 358 121 347Q108 340 95 330T75 312T61 295T53 285Q51 284 38 284Q19 284 19 294Q19 300 38 329T93 391T164 429Q171 431 532 431Q799 431 803 430Q823 423 823 402Q823 377 801 364Q790 358 766 358Q748 358 748 357Q748 355 749 348T752 327T754 297Q754 258 738 207T693 107T618 24T520 -10Q488 -10 466 2T432 36T416 77T411 120Q411 128 410 128T404 122Q373 71 323 31T206 -10ZM714 296Q714 316 707 358H251Q250 357 244 348T230 328T212 301T193 267T176 229T164 187T159 144Q159 62 222 62Q290 62 349 127T432 285Q433 286 434 288T435 291T437 293T440 294T444 294T452 294H466Q472 288 472 286Q472 285 464 244T456 170Q456 62 534 62Q604 62 659 139T714 296Z"></path></g></g><g transform="translate(7920,0)"><path stroke-width="10" d="M118 -250V750H255V710H158V-210H255V-250H118Z"></path></g><g transform="translate(8203,0)"><g transform="translate(14,0)"><path stroke-width="10" d="M296 643Q298 704 324 704Q342 704 342 687Q342 682 339 664T336 633Q336 623 337 618T338 611Q339 612 341 612Q343 614 354 616T374 618L384 619H394Q471 619 471 586Q467 548 386 546H372Q338 546 320 564L311 558Q235 506 175 398T114 190Q114 171 116 155T125 127T137 104T153 86T171 72T192 61T213 53T235 46T256 39L322 16Q389 -10 389 -80Q389 -119 364 -154T300 -202Q292 -204 274 -204Q247 -204 225 -196Q210 -192 193 -182T172 -167Q167 -159 173 -148Q180 -139 191 -139Q195 -139 221 -153T283 -168Q298 -166 310 -152T322 -117Q322 -91 302 -75T250 -51T183 -29T116 4T65 62T44 160Q44 287 121 410T293 590L302 595Q296 613 296 643Z"></path></g><g transform="translate(104,586)"><path stroke-width="10" d="M179 251Q164 251 151 245T131 234T111 215L97 227L83 238Q83 239 95 253T121 283T142 304Q165 318 187 318T253 300T320 282Q335 282 348 288T368 299T388 318L402 306L416 295Q375 236 344 222Q330 215 313 215Q292 215 248 233T179 251Z"></path></g></g><g transform="translate(8813,0)"><path stroke-width="10" d="M22 710V750H159V-250H22V-210H119V710H22Z"></path></g><g transform="translate(9318,0)"><path stroke-width="10" d="M56 237T56 250T70 270H369V420L370 570Q380 583 389 583Q402 583 409 568V270H707Q722 262 722 250T707 230H409V-68Q401 -82 391 -82H389H387Q375 -82 369 -68V230H70Q56 237 56 250Z"></path></g><g transform="translate(10324,0)"><path stroke-width="10" d="M227 -11Q149 -11 95 41T40 174Q40 262 87 322Q121 367 173 396T287 430Q289 431 329 431H367Q382 426 382 411Q382 385 341 385H325H312Q191 385 154 277L150 265H327Q340 256 340 246Q340 228 320 219H138V217Q128 187 128 143Q128 77 160 52T231 26Q258 26 284 36T326 57T343 68Q350 68 354 58T358 39Q358 36 357 35Q354 31 337 21T289 0T227 -11Z"></path><g transform="translate(411,-150)"><path stroke-width="10" transform="scale(0.707)" d="M462 0Q444 3 333 3Q217 3 199 0H190V46H221Q241 46 248 46T265 48T279 53T286 61Q287 63 287 115V165H28V211L179 442Q332 674 334 675Q336 677 355 677H373L379 671V211H471V165H379V114Q379 73 379 66T385 54Q393 47 442 46H471V0H462ZM293 211V545L74 212L183 211H293Z"></path></g></g><g transform="translate(11192,0)"><path stroke-width="10" d="M295 316Q295 356 268 385T190 414Q154 414 128 401Q98 382 98 349Q97 344 98 336T114 312T157 287Q175 282 201 278T245 269T277 256Q294 248 310 236T342 195T359 133Q359 71 321 31T198 -10H190Q138 -10 94 26L86 19L77 10Q71 4 65 -1L54 -11H46H42Q39 -11 33 -5V74V132Q33 153 35 157T45 162H54Q66 162 70 158T75 146T82 119T101 77Q136 26 198 26Q295 26 295 104Q295 133 277 151Q257 175 194 187T111 210Q75 227 54 256T33 318Q33 357 50 384T93 424T143 442T187 447H198Q238 447 268 432L283 424L292 431Q302 440 314 448H322H326Q329 448 335 442V310L329 304H301Q295 310 295 316Z"></path><path stroke-width="10" d="M69 609Q69 637 87 653T131 669Q154 667 171 652T188 609Q188 579 171 564T129 549Q104 549 87 564T69 609ZM247 0Q232 3 143 3Q132 3 106 3T56 1L34 0H26V46H42Q70 46 91 49Q100 53 102 60T104 102V205V293Q104 345 102 359T88 378Q74 385 41 385H30V408Q30 431 32 431L42 432Q52 433 70 434T106 436Q123 437 142 438T171 441T182 442H185V62Q190 52 197 50T232 46H255V0H247Z" transform="translate(399,0)"></path><path stroke-width="10" d="M329 409Q373 453 429 453Q459 453 472 434T485 396Q485 382 476 371T449 360Q416 360 412 390Q410 404 415 411Q415 412 416 414V415Q388 412 363 393Q355 388 355 386Q355 385 359 381T368 369T379 351T388 325T392 292Q392 230 343 187T222 143Q172 143 123 171Q112 153 112 133Q112 98 138 81Q147 75 155 75T227 73Q311 72 335 67Q396 58 431 26Q470 -13 470 -72Q470 -139 392 -175Q332 -206 250 -206Q167 -206 107 -175Q29 -140 29 -75Q29 -39 50 -15T92 18L103 24Q67 55 67 108Q67 155 96 193Q52 237 52 292Q52 355 102 398T223 442Q274 442 318 416L329 409ZM299 343Q294 371 273 387T221 404Q192 404 171 388T145 343Q142 326 142 292Q142 248 149 227T179 192Q196 182 222 182Q244 182 260 189T283 207T294 227T299 242Q302 258 302 292T299 343ZM403 -75Q403 -50 389 -34T348 -11T299 -2T245 0H218Q151 0 138 -6Q118 -15 107 -34T95 -74Q95 -84 101 -97T122 -127T170 -155T250 -167Q319 -167 361 -139T403 -75Z" transform="translate(682,0)"></path><path stroke-width="10" d="M41 46H55Q94 46 102 60V68Q102 77 102 91T102 122T103 161T103 203Q103 234 103 269T102 328V351Q99 370 88 376T43 385H25V408Q25 431 27 431L37 432Q47 433 65 434T102 436Q119 437 138 438T167 441T178 442H181V402Q181 364 182 364T187 369T199 384T218 402T247 421T285 437Q305 442 336 442Q450 438 463 329Q464 322 464 190V104Q464 66 466 59T477 49Q498 46 526 46H542V0H534L510 1Q487 2 460 2T422 3Q319 3 310 0H302V46H318Q379 46 379 62Q380 64 380 200Q379 335 378 343Q372 371 358 385T334 402T308 404Q263 404 229 370Q202 343 195 315T187 232V168V108Q187 78 188 68T191 55T200 49Q221 46 249 46H265V0H257L234 1Q210 2 183 2T145 3Q42 3 33 0H25V46H41Z" transform="translate(1187,0)"></path></g><g transform="translate(12940,0)"><path stroke-width="10" d="M94 250Q94 319 104 381T127 488T164 576T202 643T244 695T277 729T302 750H315H319Q333 750 333 741Q333 738 316 720T275 667T226 581T184 443T167 250T184 58T225 -81T274 -167T316 -220T333 -241Q333 -250 318 -250H315H302L274 -226Q180 -141 137 -14T94 250Z"></path></g><g transform="translate(13334,0)"><g transform="translate(14,0)"><path stroke-width="10" d="M296 643Q298 704 324 704Q342 704 342 687Q342 682 339 664T336 633Q336 623 337 618T338 611Q339 612 341 612Q343 614 354 616T374 618L384 619H394Q471 619 471 586Q467 548 386 546H372Q338 546 320 564L311 558Q235 506 175 398T114 190Q114 171 116 155T125 127T137 104T153 86T171 72T192 61T213 53T235 46T256 39L322 16Q389 -10 389 -80Q389 -119 364 -154T300 -202Q292 -204 274 -204Q247 -204 225 -196Q210 -192 193 -182T172 -167Q167 -159 173 -148Q180 -139 191 -139Q195 -139 221 -153T283 -168Q298 -166 310 -152T322 -117Q322 -91 302 -75T250 -51T183 -29T116 4T65 62T44 160Q44 287 121 410T293 590L302 595Q296 613 296 643Z"></path></g><g transform="translate(104,586)"><path stroke-width="10" d="M179 251Q164 251 151 245T131 234T111 215L97 227L83 238Q83 239 95 253T121 283T142 304Q165 318 187 318T253 300T320 282Q335 282 348 288T368 299T388 318L402 306L416 295Q375 236 344 222Q330 215 313 215Q292 215 248 233T179 251Z"></path></g></g><g transform="translate(13943,0)"><path stroke-width="10" d="M60 749L64 750Q69 750 74 750H86L114 726Q208 641 251 514T294 250Q294 182 284 119T261 12T224 -76T186 -143T145 -194T113 -227T90 -246Q87 -249 86 -250H74Q66 -250 63 -250T58 -247T55 -238Q56 -237 66 -225Q221 -64 221 250T66 725Q56 737 55 738Q55 746 60 749Z"></path></g></g></g></g></g></svg>