<svg xmlns:xlink="http://www.w3.org/1999/xlink" width="15.247ex" height="2.534ex" viewBox="0 -830.3 6564.8 1091.2" role="img" focusable="false" xmlns="http://www.w3.org/2000/svg" style="vertical-align: -0.606ex;"><g stroke="currentColor" fill="currentColor" stroke-width="0" transform="matrix(1 0 0 -1 0 0)"><g><path stroke-width="10" d="M33 157Q33 258 109 349T280 441Q340 441 372 389Q373 390 377 395T388 406T404 418Q438 442 450 442Q454 442 457 439T460 434Q460 425 391 149Q320 -135 320 -139Q320 -147 365 -148H390Q396 -156 396 -157T393 -175Q389 -188 383 -194H370Q339 -192 262 -192Q234 -192 211 -192T174 -192T157 -193Q143 -193 143 -185Q143 -182 145 -170Q149 -154 152 -151T172 -148Q220 -148 230 -141Q238 -136 258 -53T279 32Q279 33 272 29Q224 -10 172 -10Q117 -10 75 30T33 157ZM352 326Q329 405 277 405Q242 405 210 374T160 293Q131 214 119 129Q119 126 119 118T118 106Q118 61 136 44T179 26Q233 26 290 98L298 109L352 326Z"></path></g><g transform="translate(51,0)"><path stroke-width="10" d="M33 157Q33 258 109 349T280 441Q340 441 372 389Q373 390 377 395T388 406T404 418Q438 442 450 442Q454 442 457 439T460 434Q460 425 391 149Q320 -135 320 -139Q320 -147 365 -148H390Q396 -156 396 -157T393 -175Q389 -188 383 -194H370Q339 -192 262 -192Q234 -192 211 -192T174 -192T157 -193Q143 -193 143 -185Q143 -182 145 -170Q149 -154 152 -151T172 -148Q220 -148 230 -141Q238 -136 258 -53T279 32Q279 33 272 29Q224 -10 172 -10Q117 -10 75 30T33 157ZM352 326Q329 405 277 405Q242 405 210 374T160 293Q131 214 119 129Q119 126 119 118T118 106Q118 61 136 44T179 26Q233 26 290 98L298 109L352 326Z"></path></g><g transform="translate(794,0)"><path stroke-width="10" d="M56 347Q56 360 70 367H707Q722 359 722 347Q722 336 708 328L390 327H72Q56 332 56 347ZM56 153Q56 168 72 173H708Q722 163 722 153Q722 140 707 133H70Q56 140 56 153Z"></path></g><g transform="translate(1855,0)"><path stroke-width="10" d="M33 157Q33 258 109 349T280 441Q340 441 372 389Q373 390 377 395T388 406T404 418Q438 442 450 442Q454 442 457 439T460 434Q460 425 391 149Q320 -135 320 -139Q320 -147 365 -148H390Q396 -156 396 -157T393 -175Q389 -188 383 -194H370Q339 -192 262 -192Q234 -192 211 -192T174 -192T157 -193Q143 -193 143 -185Q143 -182 145 -170Q149 -154 152 -151T172 -148Q220 -148 230 -141Q238 -136 258 -53T279 32Q279 33 272 29Q224 -10 172 -10Q117 -10 75 30T33 157ZM352 326Q329 405 277 405Q242 405 210 374T160 293Q131 214 119 129Q119 126 119 118T118 106Q118 61 136 44T179 26Q233 26 290 98L298 109L352 326Z"></path><g transform="translate(451,-150)"><path stroke-width="10" transform="scale(0.707)" d="M96 585Q152 666 249 666Q297 666 345 640T423 548Q460 465 460 320Q460 165 417 83Q397 41 362 16T301 -15T250 -22Q224 -22 198 -16T137 16T82 83Q39 165 39 320Q39 494 96 585ZM321 597Q291 629 250 629Q208 629 178 597Q153 571 145 525T137 333Q137 175 145 125T181 46Q209 16 250 16Q290 16 318 46Q347 76 354 130T362 333Q362 478 354 524T321 597Z"></path></g></g><g transform="translate(2985,0)"><path stroke-width="10" d="M56 237T56 250T70 270H369V420L370 570Q380 583 389 583Q402 583 409 568V270H707Q722 262 722 250T707 230H409V-68Q401 -82 391 -82H389H387Q375 -82 369 -68V230H70Q56 237 56 250Z"></path></g><g transform="translate(3990,0)"><g transform="translate(3,0)"><path stroke-width="10" d="M33 157Q33 258 109 349T280 441Q340 441 372 389Q373 390 377 395T388 406T404 418Q438 442 450 442Q454 442 457 439T460 434Q460 425 391 149Q320 -135 320 -139Q320 -147 365 -148H390Q396 -156 396 -157T393 -175Q389 -188 383 -194H370Q339 -192 262 -192Q234 -192 211 -192T174 -192T157 -193Q143 -193 143 -185Q143 -182 145 -170Q149 -154 152 -151T172 -148Q220 -148 230 -141Q238 -136 258 -53T279 32Q279 33 272 29Q224 -10 172 -10Q117 -10 75 30T33 157ZM352 326Q329 405 277 405Q242 405 210 374T160 293Q131 214 119 129Q119 126 119 118T118 106Q118 61 136 44T179 26Q233 26 290 98L298 109L352 326Z"></path></g><g transform="translate(92,23)"><path stroke-width="10" d="M-123 694Q-123 702 -118 708T-103 714Q-93 714 -88 706T-80 687T-67 660T-40 633Q-29 626 -29 615Q-29 606 -36 600T-53 590T-83 571T-121 531Q-135 516 -143 516T-157 522T-163 536T-152 559T-129 584T-116 595H-287L-458 596Q-459 597 -461 599T-466 602T-469 607T-471 615Q-471 622 -458 635H-99Q-123 673 -123 694Z" transform="translate(466,0)"></path></g></g><g transform="translate(4832,0)"><path stroke-width="10" d="M84 250Q84 372 166 450T360 539Q361 539 377 539T419 540T469 540H568Q583 532 583 520Q583 511 570 501L466 500Q355 499 329 494Q280 482 242 458T183 409T147 354T129 306T124 272V270H568Q583 262 583 250T568 230H124V228Q124 207 134 177T167 112T231 48T328 7Q355 1 466 0H570Q583 -10 583 -20Q583 -32 568 -40H471Q464 -40 446 -40T417 -41Q262 -41 172 45Q84 127 84 250Z"></path></g><g transform="translate(5781,0)"><path stroke-width="10" d="M14 666Q14 675 26 683H344L351 679Q361 665 351 655Q344 648 317 648Q287 645 282 641Q270 637 269 623T266 497V370H511V497Q511 519 510 553Q509 615 507 626T496 641H495Q489 645 459 648Q420 648 420 665Q420 672 426 679L433 683H751Q762 676 762 666Q762 648 724 648Q684 645 677 632Q675 626 675 341Q675 57 677 52Q684 38 724 35Q762 35 762 16Q762 6 751 -1H433L426 3Q420 10 420 17Q420 35 459 35Q501 38 506 52Q511 64 511 190V323H266V190Q266 60 271 52Q276 38 317 35Q342 35 351 28Q360 17 351 3L344 -1H26Q14 5 14 16Q14 35 53 35Q94 38 99 52Q104 60 104 341T99 632Q93 645 53 648Q14 648 14 666ZM233 341V553Q233 635 239 648H131Q134 641 135 638T137 603T139 517T139 341Q139 131 138 89T132 37Q131 36 131 35H239Q233 47 233 129V341ZM639 341V489Q639 548 639 576T640 620T642 639T646 648H537L542 639Q546 625 546 341Q546 130 545 88T538 37Q537 36 537 35H646Q643 41 643 42T641 55T639 84T639 140V341Z"></path></g></g></svg>