<svg xmlns:xlink="http://www.w3.org/1999/xlink" width="35.783ex" height="2.895ex" viewBox="0 -830.3 15406.5 1246.5" role="img" focusable="false" xmlns="http://www.w3.org/2000/svg" style="vertical-align: -0.967ex;"><g stroke="currentColor" fill="currentColor" stroke-width="0" transform="matrix(1 0 0 -1 0 0)"><g><path stroke-width="10" d="M184 -11Q116 -11 74 34T31 147Q31 247 104 333T274 430Q275 431 414 431H552Q553 430 555 429T559 427T562 425T565 422T567 420T569 416T570 412T571 407T572 401Q572 357 507 357Q500 357 490 357T476 358H416L421 348Q439 310 439 263Q439 153 359 71T184 -11ZM361 278Q361 358 276 358Q152 358 115 184Q114 180 114 178Q106 141 106 117Q106 67 131 47T188 26Q242 26 287 73Q316 103 334 153T356 233T361 278Z"></path></g><g transform="translate(51,0)"><path stroke-width="10" d="M184 -11Q116 -11 74 34T31 147Q31 247 104 333T274 430Q275 431 414 431H552Q553 430 555 429T559 427T562 425T565 422T567 420T569 416T570 412T571 407T572 401Q572 357 507 357Q500 357 490 357T476 358H416L421 348Q439 310 439 263Q439 153 359 71T184 -11ZM361 278Q361 358 276 358Q152 358 115 184Q114 180 114 178Q106 141 106 117Q106 67 131 47T188 26Q242 26 287 73Q316 103 334 153T356 233T361 278Z"></path><g transform="translate(576,-150)"><path stroke-width="10" transform="scale(0.707)" d="M33 157Q33 258 109 349T280 441Q340 441 372 389Q373 390 377 395T388 406T404 418Q438 442 450 442Q454 442 457 439T460 434Q460 425 391 149Q320 -135 320 -139Q320 -147 365 -148H390Q396 -156 396 -157T393 -175Q389 -188 383 -194H370Q339 -192 262 -192Q234 -192 211 -192T174 -192T157 -193Q143 -193 143 -185Q143 -182 145 -170Q149 -154 152 -151T172 -148Q220 -148 230 -141Q238 -136 258 -53T279 32Q279 33 272 29Q224 -10 172 -10Q117 -10 75 30T33 157ZM352 326Q329 405 277 405Q242 405 210 374T160 293Q131 214 119 129Q119 126 119 118T118 106Q118 61 136 44T179 26Q233 26 290 98L298 109L352 326Z"></path></g></g><g transform="translate(1334,0)"><path stroke-width="10" d="M56 347Q56 360 70 367H707Q722 359 722 347Q722 336 708 328L390 327H72Q56 332 56 347ZM56 153Q56 168 72 173H708Q722 163 722 153Q722 140 707 133H70Q56 140 56 153Z"></path></g><g transform="translate(2395,0)"><g><path stroke-width="10" d="M39 168Q39 225 58 272T107 350T174 402T244 433T307 442H310Q355 442 388 420T421 355Q421 265 310 237Q261 224 176 223Q139 223 138 221Q138 219 132 186T125 128Q125 81 146 54T209 26T302 45T394 111Q403 121 406 121Q410 121 419 112T429 98T420 82T390 55T344 24T281 -1T205 -11Q126 -11 83 42T39 168ZM373 353Q367 405 305 405Q272 405 244 391T199 357T170 316T154 280T149 261Q149 260 169 260Q282 260 327 284T373 353Z"></path></g></g><g transform="translate(2446,0)"><path stroke-width="10" d="M39 168Q39 225 58 272T107 350T174 402T244 433T307 442H310Q355 442 388 420T421 355Q421 265 310 237Q261 224 176 223Q139 223 138 221Q138 219 132 186T125 128Q125 81 146 54T209 26T302 45T394 111Q403 121 406 121Q410 121 419 112T429 98T420 82T390 55T344 24T281 -1T205 -11Q126 -11 83 42T39 168ZM373 353Q367 405 305 405Q272 405 244 391T199 357T170 316T154 280T149 261Q149 260 169 260Q282 260 327 284T373 353Z"></path></g><g transform="translate(3140,0)"><path stroke-width="10" d="M56 237T56 250T70 270H369V420L370 570Q380 583 389 583Q402 583 409 568V270H707Q722 262 722 250T707 230H409V-68Q401 -82 391 -82H389H387Q375 -82 369 -68V230H70Q56 237 56 250Z"></path></g><g transform="translate(4145,0)"><path stroke-width="10" d="M287 628Q287 635 230 637Q207 637 200 638T193 647Q193 655 197 667T204 682Q206 683 403 683Q570 682 590 682T630 676Q702 659 752 597T803 431Q803 275 696 151T444 3L430 1L236 0H125H72Q48 0 41 2T33 11Q33 13 36 25Q40 41 44 43T67 46Q94 46 127 49Q141 52 146 61Q149 65 218 339T287 628ZM703 469Q703 507 692 537T666 584T629 613T590 629T555 636Q553 636 541 636T512 636T479 637H436Q392 637 386 627Q384 623 313 339T242 52Q242 48 253 48T330 47Q335 47 349 47T373 46Q499 46 581 128Q617 164 640 212T683 339T703 469Z"></path><g transform="translate(833,-150)"><g><path stroke-width="10" transform="scale(0.707)" d="M205 -174Q136 -174 102 -153T67 -76Q67 -25 91 85T127 234Q143 289 182 341Q252 427 341 441Q343 441 349 441T359 442Q432 442 471 394T510 276Q510 169 431 80T253 -10Q226 -10 204 -2T169 19T146 44T132 64L128 73Q128 72 124 53T116 5T112 -44Q112 -68 117 -78T150 -95T236 -102Q327 -102 356 -111T386 -154Q386 -166 384 -178Q381 -190 378 -192T361 -194H348Q342 -188 342 -179Q342 -169 315 -169Q294 -169 264 -171T205 -174ZM424 322Q424 359 407 382T357 405Q322 405 287 376T231 300Q221 276 204 217Q188 152 188 116Q188 68 210 47T259 26Q297 26 334 62Q367 92 389 158T418 266T424 322Z"></path></g><g transform="translate(51,0)"><path stroke-width="10" transform="scale(0.707)" d="M205 -174Q136 -174 102 -153T67 -76Q67 -25 91 85T127 234Q143 289 182 341Q252 427 341 441Q343 441 349 441T359 442Q432 442 471 394T510 276Q510 169 431 80T253 -10Q226 -10 204 -2T169 19T146 44T132 64L128 73Q128 72 124 53T116 5T112 -44Q112 -68 117 -78T150 -95T236 -102Q327 -102 356 -111T386 -154Q386 -166 384 -178Q381 -190 378 -192T361 -194H348Q342 -188 342 -179Q342 -169 315 -169Q294 -169 264 -171T205 -174ZM424 322Q424 359 407 382T357 405Q322 405 287 376T231 300Q221 276 204 217Q188 152 188 116Q188 68 210 47T259 26Q297 26 334 62Q367 92 389 158T418 266T424 322Z"></path><g transform="translate(369,-170)"><path stroke-width="10" transform="scale(0.5)" d="M213 578L200 573Q186 568 160 563T102 556H83V602H102Q149 604 189 617T245 641T273 663Q275 666 285 666Q294 666 302 660V361L303 61Q310 54 315 52T339 48T401 46H427V0H416Q395 3 257 3Q121 3 100 0H88V46H114Q136 46 152 46T177 47T193 50T201 52T207 57T213 61V578Z"></path></g></g></g></g><g transform="translate(5822,0)"><path stroke-width="10" d="M295 316Q295 356 268 385T190 414Q154 414 128 401Q98 382 98 349Q97 344 98 336T114 312T157 287Q175 282 201 278T245 269T277 256Q294 248 310 236T342 195T359 133Q359 71 321 31T198 -10H190Q138 -10 94 26L86 19L77 10Q71 4 65 -1L54 -11H46H42Q39 -11 33 -5V74V132Q33 153 35 157T45 162H54Q66 162 70 158T75 146T82 119T101 77Q136 26 198 26Q295 26 295 104Q295 133 277 151Q257 175 194 187T111 210Q75 227 54 256T33 318Q33 357 50 384T93 424T143 442T187 447H198Q238 447 268 432L283 424L292 431Q302 440 314 448H322H326Q329 448 335 442V310L329 304H301Q295 310 295 316Z"></path><path stroke-width="10" d="M69 609Q69 637 87 653T131 669Q154 667 171 652T188 609Q188 579 171 564T129 549Q104 549 87 564T69 609ZM247 0Q232 3 143 3Q132 3 106 3T56 1L34 0H26V46H42Q70 46 91 49Q100 53 102 60T104 102V205V293Q104 345 102 359T88 378Q74 385 41 385H30V408Q30 431 32 431L42 432Q52 433 70 434T106 436Q123 437 142 438T171 441T182 442H185V62Q190 52 197 50T232 46H255V0H247Z" transform="translate(399,0)"></path><path stroke-width="10" d="M329 409Q373 453 429 453Q459 453 472 434T485 396Q485 382 476 371T449 360Q416 360 412 390Q410 404 415 411Q415 412 416 414V415Q388 412 363 393Q355 388 355 386Q355 385 359 381T368 369T379 351T388 325T392 292Q392 230 343 187T222 143Q172 143 123 171Q112 153 112 133Q112 98 138 81Q147 75 155 75T227 73Q311 72 335 67Q396 58 431 26Q470 -13 470 -72Q470 -139 392 -175Q332 -206 250 -206Q167 -206 107 -175Q29 -140 29 -75Q29 -39 50 -15T92 18L103 24Q67 55 67 108Q67 155 96 193Q52 237 52 292Q52 355 102 398T223 442Q274 442 318 416L329 409ZM299 343Q294 371 273 387T221 404Q192 404 171 388T145 343Q142 326 142 292Q142 248 149 227T179 192Q196 182 222 182Q244 182 260 189T283 207T294 227T299 242Q302 258 302 292T299 343ZM403 -75Q403 -50 389 -34T348 -11T299 -2T245 0H218Q151 0 138 -6Q118 -15 107 -34T95 -74Q95 -84 101 -97T122 -127T170 -155T250 -167Q319 -167 361 -139T403 -75Z" transform="translate(682,0)"></path><g transform="translate(1187,412)"><g><path stroke-width="10" transform="scale(0.707)" d="M206 -10Q158 -10 136 24T114 110Q114 233 199 349L205 358H184Q144 358 121 347Q108 340 95 330T75 312T61 295T53 285Q51 284 38 284Q19 284 19 294Q19 300 38 329T93 391T164 429Q171 431 532 431Q799 431 803 430Q823 423 823 402Q823 377 801 364Q790 358 766 358Q748 358 748 357Q748 355 749 348T752 327T754 297Q754 258 738 207T693 107T618 24T520 -10Q488 -10 466 2T432 36T416 77T411 120Q411 128 410 128T404 122Q373 71 323 31T206 -10ZM714 296Q714 316 707 358H251Q250 357 244 348T230 328T212 301T193 267T176 229T164 187T159 144Q159 62 222 62Q290 62 349 127T432 285Q433 286 434 288T435 291T437 293T440 294T444 294T452 294H466Q472 288 472 286Q472 285 464 244T456 170Q456 62 534 62Q604 62 659 139T714 296Z"></path></g><g transform="translate(51,0)"><path stroke-width="10" transform="scale(0.707)" d="M206 -10Q158 -10 136 24T114 110Q114 233 199 349L205 358H184Q144 358 121 347Q108 340 95 330T75 312T61 295T53 285Q51 284 38 284Q19 284 19 294Q19 300 38 329T93 391T164 429Q171 431 532 431Q799 431 803 430Q823 423 823 402Q823 377 801 364Q790 358 766 358Q748 358 748 357Q748 355 749 348T752 327T754 297Q754 258 738 207T693 107T618 24T520 -10Q488 -10 466 2T432 36T416 77T411 120Q411 128 410 128T404 122Q373 71 323 31T206 -10ZM714 296Q714 316 707 358H251Q250 357 244 348T230 328T212 301T193 267T176 229T164 187T159 144Q159 62 222 62Q290 62 349 127T432 285Q433 286 434 288T435 291T437 293T440 294T444 294T452 294H466Q472 288 472 286Q472 285 464 244T456 170Q456 62 534 62Q604 62 659 139T714 296Z"></path><g transform="translate(589,-107)"><path stroke-width="10" transform="scale(0.5)" d="M213 578L200 573Q186 568 160 563T102 556H83V602H102Q149 604 189 617T245 641T273 663Q275 666 285 666Q294 666 302 660V361L303 61Q310 54 315 52T339 48T401 46H427V0H416Q395 3 257 3Q121 3 100 0H88V46H114Q136 46 152 46T177 47T193 50T201 52T207 57T213 61V578Z"></path></g></g></g></g><g transform="translate(8073,0)"><path stroke-width="10" d="M118 -250V750H255V710H158V-210H255V-250H118Z"></path></g><g transform="translate(8356,0)"><g><path stroke-width="10" d="M39 168Q39 225 58 272T107 350T174 402T244 433T307 442H310Q355 442 388 420T421 355Q421 265 310 237Q261 224 176 223Q139 223 138 221Q138 219 132 186T125 128Q125 81 146 54T209 26T302 45T394 111Q403 121 406 121Q410 121 419 112T429 98T420 82T390 55T344 24T281 -1T205 -11Q126 -11 83 42T39 168ZM373 353Q367 405 305 405Q272 405 244 391T199 357T170 316T154 280T149 261Q149 260 169 260Q282 260 327 284T373 353Z"></path></g></g><g transform="translate(8408,0)"><path stroke-width="10" d="M39 168Q39 225 58 272T107 350T174 402T244 433T307 442H310Q355 442 388 420T421 355Q421 265 310 237Q261 224 176 223Q139 223 138 221Q138 219 132 186T125 128Q125 81 146 54T209 26T302 45T394 111Q403 121 406 121Q410 121 419 112T429 98T420 82T390 55T344 24T281 -1T205 -11Q126 -11 83 42T39 168ZM373 353Q367 405 305 405Q272 405 244 391T199 357T170 316T154 280T149 261Q149 260 169 260Q282 260 327 284T373 353Z"></path></g><g transform="translate(8879,0)"><path stroke-width="10" d="M22 710V750H159V-250H22V-210H119V710H22Z"></path></g><g transform="translate(9384,0)"><path stroke-width="10" d="M56 237T56 250T70 270H369V420L370 570Q380 583 389 583Q402 583 409 568V270H707Q722 262 722 250T707 230H409V-68Q401 -82 391 -82H389H387Q375 -82 369 -68V230H70Q56 237 56 250Z"></path></g><g transform="translate(10389,0)"><path stroke-width="10" d="M287 628Q287 635 230 637Q207 637 200 638T193 647Q193 655 197 667T204 682Q206 683 403 683Q570 682 590 682T630 676Q702 659 752 597T803 431Q803 275 696 151T444 3L430 1L236 0H125H72Q48 0 41 2T33 11Q33 13 36 25Q40 41 44 43T67 46Q94 46 127 49Q141 52 146 61Q149 65 218 339T287 628ZM703 469Q703 507 692 537T666 584T629 613T590 629T555 636Q553 636 541 636T512 636T479 637H436Q392 637 386 627Q384 623 313 339T242 52Q242 48 253 48T330 47Q335 47 349 47T373 46Q499 46 581 128Q617 164 640 212T683 339T703 469Z"></path><g transform="translate(833,-150)"><g><path stroke-width="10" transform="scale(0.707)" d="M205 -174Q136 -174 102 -153T67 -76Q67 -25 91 85T127 234Q143 289 182 341Q252 427 341 441Q343 441 349 441T359 442Q432 442 471 394T510 276Q510 169 431 80T253 -10Q226 -10 204 -2T169 19T146 44T132 64L128 73Q128 72 124 53T116 5T112 -44Q112 -68 117 -78T150 -95T236 -102Q327 -102 356 -111T386 -154Q386 -166 384 -178Q381 -190 378 -192T361 -194H348Q342 -188 342 -179Q342 -169 315 -169Q294 -169 264 -171T205 -174ZM424 322Q424 359 407 382T357 405Q322 405 287 376T231 300Q221 276 204 217Q188 152 188 116Q188 68 210 47T259 26Q297 26 334 62Q367 92 389 158T418 266T424 322Z"></path></g><g transform="translate(51,0)"><path stroke-width="10" transform="scale(0.707)" d="M205 -174Q136 -174 102 -153T67 -76Q67 -25 91 85T127 234Q143 289 182 341Q252 427 341 441Q343 441 349 441T359 442Q432 442 471 394T510 276Q510 169 431 80T253 -10Q226 -10 204 -2T169 19T146 44T132 64L128 73Q128 72 124 53T116 5T112 -44Q112 -68 117 -78T150 -95T236 -102Q327 -102 356 -111T386 -154Q386 -166 384 -178Q381 -190 378 -192T361 -194H348Q342 -188 342 -179Q342 -169 315 -169Q294 -169 264 -171T205 -174ZM424 322Q424 359 407 382T357 405Q322 405 287 376T231 300Q221 276 204 217Q188 152 188 116Q188 68 210 47T259 26Q297 26 334 62Q367 92 389 158T418 266T424 322Z"></path><g transform="translate(369,-170)"><path stroke-width="10" transform="scale(0.5)" d="M109 429Q82 429 66 447T50 491Q50 562 103 614T235 666Q326 666 387 610T449 465Q449 422 429 383T381 315T301 241Q265 210 201 149L142 93L218 92Q375 92 385 97Q392 99 409 186V189H449V186Q448 183 436 95T421 3V0H50V19V31Q50 38 56 46T86 81Q115 113 136 137Q145 147 170 174T204 211T233 244T261 278T284 308T305 340T320 369T333 401T340 431T343 464Q343 527 309 573T212 619Q179 619 154 602T119 569T109 550Q109 549 114 549Q132 549 151 535T170 489Q170 464 154 447T109 429Z"></path></g></g></g></g><g transform="translate(12066,0)"><path stroke-width="10" d="M295 316Q295 356 268 385T190 414Q154 414 128 401Q98 382 98 349Q97 344 98 336T114 312T157 287Q175 282 201 278T245 269T277 256Q294 248 310 236T342 195T359 133Q359 71 321 31T198 -10H190Q138 -10 94 26L86 19L77 10Q71 4 65 -1L54 -11H46H42Q39 -11 33 -5V74V132Q33 153 35 157T45 162H54Q66 162 70 158T75 146T82 119T101 77Q136 26 198 26Q295 26 295 104Q295 133 277 151Q257 175 194 187T111 210Q75 227 54 256T33 318Q33 357 50 384T93 424T143 442T187 447H198Q238 447 268 432L283 424L292 431Q302 440 314 448H322H326Q329 448 335 442V310L329 304H301Q295 310 295 316Z"></path><path stroke-width="10" d="M69 609Q69 637 87 653T131 669Q154 667 171 652T188 609Q188 579 171 564T129 549Q104 549 87 564T69 609ZM247 0Q232 3 143 3Q132 3 106 3T56 1L34 0H26V46H42Q70 46 91 49Q100 53 102 60T104 102V205V293Q104 345 102 359T88 378Q74 385 41 385H30V408Q30 431 32 431L42 432Q52 433 70 434T106 436Q123 437 142 438T171 441T182 442H185V62Q190 52 197 50T232 46H255V0H247Z" transform="translate(399,0)"></path><path stroke-width="10" d="M329 409Q373 453 429 453Q459 453 472 434T485 396Q485 382 476 371T449 360Q416 360 412 390Q410 404 415 411Q415 412 416 414V415Q388 412 363 393Q355 388 355 386Q355 385 359 381T368 369T379 351T388 325T392 292Q392 230 343 187T222 143Q172 143 123 171Q112 153 112 133Q112 98 138 81Q147 75 155 75T227 73Q311 72 335 67Q396 58 431 26Q470 -13 470 -72Q470 -139 392 -175Q332 -206 250 -206Q167 -206 107 -175Q29 -140 29 -75Q29 -39 50 -15T92 18L103 24Q67 55 67 108Q67 155 96 193Q52 237 52 292Q52 355 102 398T223 442Q274 442 318 416L329 409ZM299 343Q294 371 273 387T221 404Q192 404 171 388T145 343Q142 326 142 292Q142 248 149 227T179 192Q196 182 222 182Q244 182 260 189T283 207T294 227T299 242Q302 258 302 292T299 343ZM403 -75Q403 -50 389 -34T348 -11T299 -2T245 0H218Q151 0 138 -6Q118 -15 107 -34T95 -74Q95 -84 101 -97T122 -127T170 -155T250 -167Q319 -167 361 -139T403 -75Z" transform="translate(682,0)"></path><g transform="translate(1187,412)"><g><path stroke-width="10" transform="scale(0.707)" d="M206 -10Q158 -10 136 24T114 110Q114 233 199 349L205 358H184Q144 358 121 347Q108 340 95 330T75 312T61 295T53 285Q51 284 38 284Q19 284 19 294Q19 300 38 329T93 391T164 429Q171 431 532 431Q799 431 803 430Q823 423 823 402Q823 377 801 364Q790 358 766 358Q748 358 748 357Q748 355 749 348T752 327T754 297Q754 258 738 207T693 107T618 24T520 -10Q488 -10 466 2T432 36T416 77T411 120Q411 128 410 128T404 122Q373 71 323 31T206 -10ZM714 296Q714 316 707 358H251Q250 357 244 348T230 328T212 301T193 267T176 229T164 187T159 144Q159 62 222 62Q290 62 349 127T432 285Q433 286 434 288T435 291T437 293T440 294T444 294T452 294H466Q472 288 472 286Q472 285 464 244T456 170Q456 62 534 62Q604 62 659 139T714 296Z"></path></g><g transform="translate(51,0)"><path stroke-width="10" transform="scale(0.707)" d="M206 -10Q158 -10 136 24T114 110Q114 233 199 349L205 358H184Q144 358 121 347Q108 340 95 330T75 312T61 295T53 285Q51 284 38 284Q19 284 19 294Q19 300 38 329T93 391T164 429Q171 431 532 431Q799 431 803 430Q823 423 823 402Q823 377 801 364Q790 358 766 358Q748 358 748 357Q748 355 749 348T752 327T754 297Q754 258 738 207T693 107T618 24T520 -10Q488 -10 466 2T432 36T416 77T411 120Q411 128 410 128T404 122Q373 71 323 31T206 -10ZM714 296Q714 316 707 358H251Q250 357 244 348T230 328T212 301T193 267T176 229T164 187T159 144Q159 62 222 62Q290 62 349 127T432 285Q433 286 434 288T435 291T437 293T440 294T444 294T452 294H466Q472 288 472 286Q472 285 464 244T456 170Q456 62 534 62Q604 62 659 139T714 296Z"></path><g transform="translate(589,-107)"><path stroke-width="10" transform="scale(0.5)" d="M109 429Q82 429 66 447T50 491Q50 562 103 614T235 666Q326 666 387 610T449 465Q449 422 429 383T381 315T301 241Q265 210 201 149L142 93L218 92Q375 92 385 97Q392 99 409 186V189H449V186Q448 183 436 95T421 3V0H50V19V31Q50 38 56 46T86 81Q115 113 136 137Q145 147 170 174T204 211T233 244T261 278T284 308T305 340T320 369T333 401T340 431T343 464Q343 527 309 573T212 619Q179 619 154 602T119 569T109 550Q109 549 114 549Q132 549 151 535T170 489Q170 464 154 447T109 429Z"></path></g></g></g></g><g transform="translate(14317,0)"><path stroke-width="10" d="M118 -250V750H255V710H158V-210H255V-250H118Z"></path></g><g transform="translate(14600,0)"><g><path stroke-width="10" d="M39 168Q39 225 58 272T107 350T174 402T244 433T307 442H310Q355 442 388 420T421 355Q421 265 310 237Q261 224 176 223Q139 223 138 221Q138 219 132 186T125 128Q125 81 146 54T209 26T302 45T394 111Q403 121 406 121Q410 121 419 112T429 98T420 82T390 55T344 24T281 -1T205 -11Q126 -11 83 42T39 168ZM373 353Q367 405 305 405Q272 405 244 391T199 357T170 316T154 280T149 261Q149 260 169 260Q282 260 327 284T373 353Z"></path></g><g transform="translate(51,0)"><path stroke-width="10" d="M39 168Q39 225 58 272T107 350T174 402T244 433T307 442H310Q355 442 388 420T421 355Q421 265 310 237Q261 224 176 223Q139 223 138 221Q138 219 132 186T125 128Q125 81 146 54T209 26T302 45T394 111Q403 121 406 121Q410 121 419 112T429 98T420 82T390 55T344 24T281 -1T205 -11Q126 -11 83 42T39 168ZM373 353Q367 405 305 405Q272 405 244 391T199 357T170 316T154 280T149 261Q149 260 169 260Q282 260 327 284T373 353Z"></path></g><g transform="translate(8,-9)"><path stroke-width="10" d="M190 609Q190 637 208 653T252 669Q275 667 292 652T309 609Q309 579 292 564T250 549Q225 549 208 564T190 609Z"></path></g></g><g transform="translate(15123,0)"><path stroke-width="10" d="M22 710V750H159V-250H22V-210H119V710H22Z"></path></g></g></svg>