<svg xmlns:xlink="http://www.w3.org/1999/xlink" width="2.685ex" height="2.053ex" viewBox="0 -519.7 1156.1 884.1" role="img" focusable="false" xmlns="http://www.w3.org/2000/svg" style="vertical-align: -0.846ex;"><g stroke="currentColor" fill="currentColor" stroke-width="0" transform="matrix(1 0 0 -1 0 0)"><g><path stroke-width="10" d="M576 -125Q576 -147 547 -175T487 -204H476Q394 -204 363 -157Q334 -114 293 26L284 59Q283 58 248 19T170 -66T92 -151T53 -191Q49 -194 43 -194Q36 -194 31 -189T25 -177T38 -154T151 -30L272 102L265 131Q189 405 135 405Q104 405 87 358Q86 351 68 351Q48 351 48 361Q48 369 56 386T89 423T148 442Q224 442 258 400Q276 375 297 320T330 222L341 180Q344 180 455 303T573 429Q579 431 582 431Q600 431 600 414Q600 407 587 392T477 270Q356 138 353 134L362 102Q392 -10 428 -89T490 -168Q504 -168 517 -156T536 -126Q539 -116 543 -115T557 -114T571 -115Q576 -118 576 -125Z"></path></g><g transform="translate(51,0)"><path stroke-width="10" d="M576 -125Q576 -147 547 -175T487 -204H476Q394 -204 363 -157Q334 -114 293 26L284 59Q283 58 248 19T170 -66T92 -151T53 -191Q49 -194 43 -194Q36 -194 31 -189T25 -177T38 -154T151 -30L272 102L265 131Q189 405 135 405Q104 405 87 358Q86 351 68 351Q48 351 48 361Q48 369 56 386T89 423T148 442Q224 442 258 400Q276 375 297 320T330 222L341 180Q344 180 455 303T573 429Q579 431 582 431Q600 431 600 414Q600 407 587 392T477 270Q356 138 353 134L362 102Q392 -10 428 -89T490 -168Q504 -168 517 -156T536 -126Q539 -116 543 -115T557 -114T571 -115Q576 -118 576 -125Z"></path><g transform="translate(631,-250)"><path stroke-width="10" transform="scale(0.707)" d="M366 683Q367 683 438 688T511 694Q523 694 523 686Q523 679 450 384T375 83T374 68Q374 26 402 26Q411 27 422 35Q443 55 463 131Q469 151 473 152Q475 153 483 153H487H491Q506 153 506 145Q506 140 503 129Q490 79 473 48T445 8T417 -8Q409 -10 393 -10Q359 -10 336 5T306 36L300 51Q299 52 296 50Q294 48 292 46Q233 -10 172 -10Q117 -10 75 30T33 157Q33 205 53 255T101 341Q148 398 195 420T280 442Q336 442 364 400Q369 394 369 396Q370 400 396 505T424 616Q424 629 417 632T378 637H357Q351 643 351 645T353 664Q358 683 366 683ZM352 326Q329 405 277 405Q242 405 210 374T160 293Q131 214 119 129Q119 126 119 118T118 106Q118 61 136 44T179 26Q233 26 290 98L298 109L352 326Z"></path></g></g></g></svg>